<svg width="10" height="10" viewBox="0 0 10 10" fill="none" xmlns="http://www.w3.org/2000/svg">
<g clip-path="url(#clip0_49_75)">
<path d="M8.78572 6.17651L5.27592 9.5889C5.2397 9.62415 5.19669 9.65212 5.14934 9.6712C5.102 9.69028 5.05125 9.7001 5.00001 9.7001C4.94876 9.7001 4.89801 9.69028 4.85067 9.6712C4.80332 9.65212 4.76031 9.62415 4.7241 9.5889L1.21429 6.17651C1.14112 6.10536 1.10001 6.00887 1.10001 5.90826C1.10001 5.80764 1.14112 5.71115 1.21429 5.64001C1.28747 5.56886 1.38672 5.52889 1.4902 5.52889C1.59369 5.52889 1.69294 5.56886 1.76611 5.64001L4.61003 8.40546V0.979252C4.61003 0.878694 4.65111 0.782255 4.72425 0.711149C4.79738 0.640044 4.89658 0.600098 5.00001 0.600098C5.10343 0.600098 5.20263 0.640044 5.27576 0.711149C5.3489 0.782255 5.38998 0.878694 5.38998 0.979252V8.40546L8.2339 5.64001C8.30708 5.56886 8.40632 5.52889 8.50981 5.52889C8.6133 5.52889 8.71254 5.56886 8.78572 5.64001C8.8589 5.71115 8.90001 5.80764 8.90001 5.90826C8.90001 6.00887 8.8589 6.10536 8.78572 6.17651Z" fill="white" stroke="white" stroke-width="0.5"/>
</g>
<defs>
<clipPath id="clip0_49_75">
<rect width="10" height="10" fill="white"/>
</clipPath>
</defs>
</svg>
