<svg width="30" height="30" viewBox="0 0 30 30" fill="none" xmlns="http://www.w3.org/2000/svg">
<path d="M20.3846 10.6923V17.1538C20.3846 17.4395 20.2712 17.7134 20.0692 17.9153C19.8672 18.1173 19.5933 18.2308 19.3077 18.2308C19.0221 18.2308 18.7482 18.1173 18.5462 17.9153C18.3442 17.7134 18.2308 17.4395 18.2308 17.1538V13.2917L11.4542 20.0696C11.3542 20.1697 11.2354 20.249 11.1047 20.3032C10.9739 20.3573 10.8338 20.3852 10.6923 20.3852C10.5508 20.3852 10.4107 20.3573 10.28 20.3032C10.1492 20.249 10.0304 20.1697 9.93039 20.0696C9.83033 19.9696 9.75096 19.8508 9.69681 19.72C9.64266 19.5893 9.61479 19.4492 9.61479 19.3077C9.61479 19.1662 9.64266 19.0261 9.69681 18.8953C9.75096 18.7646 9.83033 18.6458 9.93039 18.5458L16.7083 11.7692H12.8462C12.5605 11.7692 12.2866 11.6558 12.0847 11.4538C11.8827 11.2518 11.7692 10.9779 11.7692 10.6923C11.7692 10.4067 11.8827 10.1328 12.0847 9.93081C12.2866 9.72884 12.5605 9.61538 12.8462 9.61538H19.3077C19.5933 9.61538 19.8672 9.72884 20.0692 9.93081C20.2712 10.1328 20.3846 10.4067 20.3846 10.6923ZM29 15C29 17.7689 28.1789 20.4757 26.6406 22.778C25.1022 25.0803 22.9157 26.8747 20.3576 27.9343C17.7994 28.9939 14.9845 29.2712 12.2687 28.731C9.55301 28.1908 7.05844 26.8574 5.10051 24.8995C3.14258 22.9416 1.80921 20.447 1.26901 17.7313C0.728819 15.0155 1.00607 12.2006 2.06569 9.64243C3.12532 7.08427 4.91973 4.89776 7.22202 3.35943C9.52431 1.82109 12.2311 1 15 1C18.7118 1.00392 22.2705 2.48017 24.8952 5.10483C27.5198 7.72949 28.9961 11.2882 29 15ZM26.8462 15C26.8462 12.6571 26.1514 10.3667 24.8497 8.41863C23.548 6.47054 21.6979 4.95219 19.5333 4.05558C17.3687 3.15897 14.9869 2.92438 12.6889 3.38147C10.391 3.83855 8.28022 4.96679 6.62351 6.6235C4.9668 8.28022 3.83856 10.391 3.38147 12.6889C2.92439 14.9869 3.15898 17.3687 4.05559 19.5333C4.95219 21.6979 6.47054 23.548 8.41863 24.8497C10.3667 26.1514 12.6571 26.8461 15 26.8461C18.1407 26.8426 21.1517 25.5934 23.3726 23.3726C25.5934 21.1517 26.8426 18.1407 26.8462 15Z" fill="white" stroke="white" stroke-width="0.5" stroke-miterlimit="2.3662" stroke-linecap="square"/>
</svg>
