<svg width="1300" height="274" viewBox="0 0 1300 274" fill="none" xmlns="http://www.w3.org/2000/svg">
<path d="M0.902832 137C0.902832 146.098 5.2948 155.073 13.8518 163.843C22.4121 172.616 35.0834 181.122 51.4812 189.253C84.2738 205.513 131.784 220.181 190.566 232.509C308.115 257.162 470.55 272.417 650 272.417C829.45 272.417 991.885 257.162 1109.43 232.509C1168.22 220.181 1215.73 205.513 1248.52 189.253C1264.92 181.122 1277.59 172.616 1286.15 163.843C1294.71 155.073 1299.1 146.098 1299.1 137C1299.1 127.902 1294.71 118.927 1286.15 110.157C1277.59 101.384 1264.92 92.8778 1248.52 84.7471C1215.73 68.4873 1168.22 53.8191 1109.43 41.4911C991.885 16.8384 829.45 1.58332 650 1.58332C470.55 1.58332 308.115 16.8384 190.566 41.4911C131.784 53.8191 84.2738 68.4873 51.4812 84.7471C35.0834 92.8778 22.4121 101.384 13.8518 110.157C5.2948 118.927 0.902832 127.902 0.902832 137Z" stroke="#1F4E75" stroke-width="1.80556"/>
<path fill-rule="evenodd" clip-rule="evenodd" d="M1127.36 45.0894C1128.45 45.3359 1129.54 45.5832 1130.63 45.8313C1044.01 77.4512 868.376 99.0833 665.799 99.0833C453.911 99.0833 271.495 75.4171 189.597 41.4095C190.648 41.1898 191.702 40.9709 192.76 40.7527C218.553 51.1431 253.929 60.5713 296.84 68.6194C391.21 86.3189 521.658 97.2777 665.799 97.2777C809.939 97.2777 940.387 86.3189 1034.76 68.6194C1071.62 61.7061 1102.92 53.7745 1127.36 45.0894ZM951.469 16.9977C877.068 30.2516 768.765 38.5972 648.195 38.5972C528.368 38.5972 420.659 30.3543 346.301 17.2425C348.466 17.0037 350.638 16.7674 352.817 16.5336C355.573 16.9983 358.373 17.4565 361.216 17.9081C434.613 29.5702 536.076 36.7916 648.195 36.7916C760.313 36.7916 861.776 29.5702 935.173 17.9081C938.497 17.38 941.762 16.8429 944.968 16.2971C947.142 16.5282 949.309 16.7617 951.469 16.9977Z" fill="#1F4E75"/>
<path fill-rule="evenodd" clip-rule="evenodd" d="M1127.36 228.277C1128.45 228.031 1129.54 227.783 1130.63 227.535C1044.01 195.915 868.376 174.283 665.799 174.283C453.911 174.283 271.495 197.95 189.597 231.957C190.648 232.177 191.702 232.396 192.761 232.614C218.553 222.224 253.929 212.795 296.84 204.747C391.21 187.048 521.658 176.089 665.799 176.089C809.939 176.089 940.387 187.048 1034.76 204.747C1071.62 211.66 1102.92 219.592 1127.36 228.277ZM951.469 256.369C877.068 243.115 768.765 234.769 648.195 234.769C528.368 234.769 420.659 243.012 346.301 256.124C348.466 256.363 350.638 256.599 352.817 256.833C355.573 256.368 358.373 255.91 361.216 255.458C434.613 243.796 536.076 236.575 648.195 236.575C760.313 236.575 861.776 243.796 935.173 255.458C938.497 255.987 941.763 256.524 944.968 257.069C947.142 256.838 949.309 256.605 951.469 256.369Z" fill="#1F4E75"/>
<path d="M532.639 137.451C532.639 212.116 585.098 272.417 649.549 272.417C714 272.417 766.458 212.116 766.458 137.451C766.458 62.787 714 2.48615 649.549 2.48615C585.098 2.48615 532.639 62.787 532.639 137.451Z" stroke="#1F4E75" stroke-width="1.80556"/>
<path d="M389.097 137.451C389.097 174.463 417.972 208.193 465.16 232.724C512.303 257.231 577.492 272.417 649.549 272.417C721.605 272.417 786.795 257.231 833.938 232.724C881.125 208.193 910 174.463 910 137.451C910 100.44 881.125 66.7101 833.938 42.1792C786.795 17.6715 721.605 2.48615 649.549 2.48615C577.492 2.48615 512.303 17.6715 465.16 42.1792C417.972 66.7101 389.097 100.44 389.097 137.451Z" stroke="#1F4E75" stroke-width="1.80556"/>
<path d="M174.236 137.451C174.236 155.752 187.243 173.388 211.262 189.589C235.248 205.769 270.017 220.376 313.061 232.657C399.138 257.215 518.105 272.417 649.549 272.417C780.993 272.417 899.959 257.215 986.036 232.657C1029.08 220.376 1063.85 205.769 1087.84 189.589C1111.85 173.388 1124.86 155.752 1124.86 137.451C1124.86 119.151 1111.85 101.515 1087.84 85.3139C1063.85 69.1339 1029.08 54.5273 986.036 42.2463C899.959 17.6879 780.993 2.48615 649.549 2.48615C518.105 2.48615 399.138 17.6879 313.061 42.2463C270.017 54.5273 235.248 69.1339 211.262 85.3139C187.243 101.515 174.236 119.151 174.236 137.451Z" stroke="#1F4E75" stroke-width="1.80556"/>
<line x1="650.903" y1="1.58337" x2="650.903" y2="273.319" stroke="#1F4E75" stroke-width="1.80556"/>
<line x1="0.90271" y1="136.097" x2="1300" y2="136.097" stroke="#1F4E75" stroke-width="1.80556"/>
<mask id="path-9-outside-1_652_2139" maskUnits="userSpaceOnUse" x="7.83325" y="96.0834" width="1284" height="81" fill="black">
<rect fill="white" x="7.83325" y="96.0834" width="1284" height="81"/>
<path d="M108.067 119.044C103.707 116.118 98.5444 113.819 92.5785 112.147C86.6125 110.474 80.5892 109.638 74.5085 109.638C68.5425 109.638 62.9207 110.335 57.6432 111.729C52.4803 113.052 47.8911 114.933 43.8755 117.372C39.9747 119.81 36.9344 122.667 34.7545 125.941C32.5746 129.146 31.4847 132.63 31.4847 136.392C31.4847 140.084 32.5746 143.568 34.7545 146.842C36.9344 150.047 39.9747 152.869 43.8755 155.307C47.8911 157.746 52.4803 159.662 57.6432 161.055C62.9207 162.449 68.5425 163.145 74.5085 163.145C80.5892 163.145 86.5552 162.379 92.4064 160.846C98.2576 159.244 103.478 157.084 108.067 154.367L120.114 161.996C116.098 164.434 111.509 166.559 106.346 168.371C101.298 170.182 95.963 171.575 90.3412 172.551C84.8342 173.526 79.2124 174.014 73.4759 174.014C64.6417 174.014 56.4385 173.073 48.8663 171.192C41.2941 169.242 34.6398 166.559 28.9033 163.145C23.2815 159.731 18.8644 155.76 15.6519 151.232C12.4395 146.633 10.8333 141.722 10.8333 136.496C10.8333 131.271 12.4395 126.429 15.6519 121.97C18.8644 117.442 23.3388 113.47 29.0753 110.056C34.9266 106.643 41.6383 103.995 49.2105 102.114C56.8974 100.233 65.2153 99.2924 74.1643 99.2924C79.9008 99.2924 85.5226 99.7452 91.0296 100.651C96.5367 101.557 101.757 102.846 106.69 104.518C111.624 106.19 116.041 108.21 119.942 110.579L108.067 119.044Z"/>
<path d="M192.156 99.2924C201.105 99.2924 209.423 100.233 217.11 102.114C224.911 103.995 231.68 106.643 237.417 110.056C243.268 113.47 247.8 117.442 251.012 121.97C254.339 126.429 256.003 131.271 256.003 136.496C256.003 141.722 254.339 146.633 251.012 151.232C247.8 155.76 243.268 159.731 237.417 163.145C231.68 166.559 224.911 169.242 217.11 171.192C209.423 173.073 201.105 174.014 192.156 174.014C183.207 174.014 174.831 173.073 167.03 171.192C159.343 169.242 152.574 166.559 146.723 163.145C140.986 159.731 136.454 155.76 133.127 151.232C129.915 146.633 128.308 141.722 128.308 136.496C128.308 131.271 129.915 126.394 133.127 121.866C136.454 117.337 140.986 113.401 146.723 110.056C152.574 106.643 159.343 103.995 167.03 102.114C174.831 100.233 183.207 99.2924 192.156 99.2924ZM192.328 109.743C186.362 109.743 180.74 110.44 175.462 111.833C170.3 113.157 165.71 115.038 161.695 117.476C157.679 119.915 154.524 122.771 152.23 126.046C150.05 129.251 148.96 132.734 148.96 136.496C148.96 140.259 150.107 143.777 152.402 147.051C154.696 150.326 157.851 153.217 161.867 155.725C165.883 158.164 170.472 160.08 175.635 161.473C180.912 162.867 186.477 163.563 192.328 163.563C198.179 163.563 203.686 162.867 208.849 161.473C214.127 160.08 218.716 158.164 222.617 155.725C226.517 153.217 229.558 150.326 231.738 147.051C234.032 143.777 235.18 140.259 235.18 136.496C235.18 132.734 234.032 129.251 231.738 126.046C229.558 122.771 226.517 119.915 222.617 117.476C218.716 115.038 214.127 113.157 208.849 111.833C203.686 110.44 198.179 109.743 192.328 109.743Z"/>
<path d="M277.613 100.024H301.19L342.837 149.664L384.14 100.024H407.717V173.178H388.959L388.787 117.267L349.205 165.549H336.298L296.371 117.267V173.178H277.613V100.024Z"/>
<path d="M439.457 100.024H459.764V173.178H439.457V100.024Z"/>
<path d="M491.388 100.024H511.351L581.049 158.025L575.886 159.07V100.024H595.849V173.178H575.886L506.36 115.282L511.695 114.237V173.178H491.388V100.024Z"/>
<path d="M717.003 118.103C712.414 115.456 707.022 113.401 700.826 111.938C694.745 110.405 688.55 109.638 682.24 109.638C676.044 109.638 670.308 110.335 665.03 111.729C659.753 113.122 655.106 115.038 651.091 117.476C647.075 119.915 643.92 122.771 641.625 126.046C639.445 129.251 638.356 132.734 638.356 136.496C638.356 140.259 639.445 143.777 641.625 147.051C643.92 150.326 647.075 153.217 651.091 155.725C655.106 158.164 659.753 160.08 665.03 161.473C670.423 162.867 676.216 163.563 682.412 163.563C688.034 163.563 693.828 162.867 699.794 161.473C705.874 160.08 711.324 158.199 716.143 155.83L727.845 164.399C723.83 166.281 719.183 167.953 713.905 169.416C708.743 170.879 703.35 172.028 697.728 172.864C692.107 173.631 686.542 174.014 681.035 174.014C672.086 174.014 663.768 173.073 656.081 171.192C648.509 169.242 641.797 166.559 635.946 163.145C630.21 159.731 625.735 155.76 622.523 151.232C619.31 146.633 617.704 141.722 617.704 136.496C617.704 131.271 619.31 126.429 622.523 121.97C625.85 117.442 630.439 113.47 636.29 110.056C642.142 106.643 648.968 103.995 656.77 102.114C664.686 100.233 673.176 99.2924 682.24 99.2924C687.976 99.2924 693.598 99.7104 699.105 100.546C704.727 101.382 710.062 102.567 715.11 104.1C720.158 105.632 724.633 107.479 728.533 109.638L717.003 118.103ZM710.119 137.437H727.845V164.399H710.119V137.437Z"/>
<path d="M876.287 116.954C871.927 115.282 867.624 113.958 863.379 112.983C859.134 112.007 855.119 111.311 851.333 110.893C847.547 110.474 844.105 110.265 841.007 110.265C835.041 110.265 830.28 110.962 826.723 112.356C823.167 113.749 821.388 115.769 821.388 118.417C821.388 120.786 822.536 122.736 824.83 124.269C827.24 125.732 830.337 126.952 834.123 127.927C838.024 128.833 842.269 129.704 846.858 130.54C851.562 131.376 856.209 132.316 860.798 133.361C865.387 134.337 869.632 135.626 873.533 137.228C877.434 138.83 880.532 140.886 882.826 143.394C885.121 145.832 886.268 148.933 886.268 152.695C886.268 157.014 884.318 160.777 880.417 163.981C876.516 167.117 871.124 169.555 864.24 171.297C857.471 173.039 849.669 173.909 840.835 173.909C834.525 173.909 828.387 173.422 822.421 172.446C816.455 171.401 810.833 170.008 805.555 168.266C800.393 166.524 795.746 164.504 791.616 162.205L800.393 152.068C804.523 154.367 808.883 156.318 813.472 157.92C818.176 159.522 822.88 160.742 827.584 161.578C832.402 162.414 836.934 162.832 841.179 162.832C848.292 162.832 853.799 161.996 857.7 160.324C861.716 158.652 863.724 156.318 863.724 153.322C863.724 150.883 862.519 148.933 860.11 147.469C857.815 145.937 854.717 144.683 850.817 143.707C847.03 142.732 842.785 141.861 838.081 141.095C833.492 140.328 828.846 139.457 824.142 138.482C819.553 137.437 815.308 136.148 811.407 134.615C807.621 133.083 804.523 131.097 802.114 128.658C799.819 126.22 798.672 123.12 798.672 119.357C798.672 115.247 800.507 111.694 804.179 108.698C807.85 105.632 812.956 103.264 819.495 101.592C826.15 99.9194 833.836 99.0834 842.556 99.0834C850.358 99.0834 857.93 99.7801 865.272 101.173C872.615 102.567 879.098 104.378 884.719 106.608L876.287 116.954Z"/>
<path d="M963.895 99.2924C972.844 99.2924 981.162 100.233 988.849 102.114C996.651 103.995 1003.42 106.643 1009.16 110.056C1015.01 113.47 1019.54 117.442 1022.75 121.97C1026.08 126.429 1027.74 131.271 1027.74 136.496C1027.74 141.722 1026.08 146.633 1022.75 151.232C1019.54 155.76 1015.01 159.731 1009.16 163.145C1003.42 166.559 996.651 169.242 988.849 171.192C981.162 173.073 972.844 174.014 963.895 174.014C954.946 174.014 946.571 173.073 938.769 171.192C931.082 169.242 924.313 166.559 918.462 163.145C912.726 159.731 908.194 155.76 904.867 151.232C901.654 146.633 900.048 141.722 900.048 136.496C900.048 131.271 901.654 126.394 904.867 121.866C908.194 117.337 912.726 113.401 918.462 110.056C924.313 106.643 931.082 103.995 938.769 102.114C946.571 100.233 954.946 99.2924 963.895 99.2924ZM964.067 109.743C958.101 109.743 952.479 110.44 947.202 111.833C942.039 113.157 937.45 115.038 933.434 117.476C929.419 119.915 926.264 122.771 923.969 126.046C921.789 129.251 920.699 132.734 920.699 136.496C920.699 140.259 921.847 143.777 924.141 147.051C926.436 150.326 929.591 153.217 933.606 155.725C937.622 158.164 942.211 160.08 947.374 161.473C952.652 162.867 958.216 163.563 964.067 163.563C969.919 163.563 975.426 162.867 980.588 161.473C985.866 160.08 990.455 158.164 994.356 155.725C998.257 153.217 1001.3 150.326 1003.48 147.051C1005.77 143.777 1006.92 140.259 1006.92 136.496C1006.92 132.734 1005.77 129.251 1003.48 126.046C1001.3 122.771 998.257 119.915 994.356 117.476C990.455 115.038 985.866 113.157 980.588 111.833C975.426 110.44 969.919 109.743 964.067 109.743Z"/>
<path d="M1098.34 99.2924C1107.29 99.2924 1115.61 100.233 1123.3 102.114C1131.1 103.995 1137.87 106.643 1143.61 110.056C1149.46 113.47 1153.99 117.442 1157.2 121.97C1160.53 126.429 1162.19 131.271 1162.19 136.496C1162.19 141.722 1160.53 146.633 1157.2 151.232C1153.99 155.76 1149.46 159.731 1143.61 163.145C1137.87 166.559 1131.1 169.242 1123.3 171.192C1115.61 173.073 1107.29 174.014 1098.34 174.014C1089.4 174.014 1081.02 173.073 1073.22 171.192C1065.53 169.242 1058.76 166.559 1052.91 163.145C1047.17 159.731 1042.64 155.76 1039.32 151.232C1036.1 146.633 1034.5 141.722 1034.5 136.496C1034.5 131.271 1036.1 126.394 1039.32 121.866C1042.64 117.337 1047.17 113.401 1052.91 110.056C1058.76 106.643 1065.53 103.995 1073.22 102.114C1081.02 100.233 1089.4 99.2924 1098.34 99.2924ZM1098.52 109.743C1092.55 109.743 1086.93 110.44 1081.65 111.833C1076.49 113.157 1071.9 115.038 1067.88 117.476C1063.87 119.915 1060.71 122.771 1058.42 126.046C1056.24 129.251 1055.15 132.734 1055.15 136.496C1055.15 140.259 1056.3 143.777 1058.59 147.051C1060.89 150.326 1064.04 153.217 1068.06 155.725C1072.07 158.164 1076.66 160.08 1081.82 161.473C1087.1 162.867 1092.67 163.563 1098.52 163.563C1104.37 163.563 1109.87 162.867 1115.04 161.473C1120.32 160.08 1124.9 158.164 1128.81 155.725C1132.71 153.217 1135.75 150.326 1137.93 147.051C1140.22 143.777 1141.37 140.259 1141.37 136.496C1141.37 132.734 1140.22 129.251 1137.93 126.046C1135.75 122.771 1132.71 119.915 1128.81 117.476C1124.9 115.038 1120.32 113.157 1115.04 111.833C1109.87 110.44 1104.37 109.743 1098.52 109.743Z"/>
<path d="M1183.8 100.024H1203.76L1273.46 158.025L1268.3 159.07V100.024H1288.26V173.178H1268.3L1198.77 115.282L1204.11 114.237V173.178H1183.8V100.024Z"/>
</mask>
<path d="M108.067 119.044C103.707 116.118 98.5444 113.819 92.5785 112.147C86.6125 110.474 80.5892 109.638 74.5085 109.638C68.5425 109.638 62.9207 110.335 57.6432 111.729C52.4803 113.052 47.8911 114.933 43.8755 117.372C39.9747 119.81 36.9344 122.667 34.7545 125.941C32.5746 129.146 31.4847 132.63 31.4847 136.392C31.4847 140.084 32.5746 143.568 34.7545 146.842C36.9344 150.047 39.9747 152.869 43.8755 155.307C47.8911 157.746 52.4803 159.662 57.6432 161.055C62.9207 162.449 68.5425 163.145 74.5085 163.145C80.5892 163.145 86.5552 162.379 92.4064 160.846C98.2576 159.244 103.478 157.084 108.067 154.367L120.114 161.996C116.098 164.434 111.509 166.559 106.346 168.371C101.298 170.182 95.963 171.575 90.3412 172.551C84.8342 173.526 79.2124 174.014 73.4759 174.014C64.6417 174.014 56.4385 173.073 48.8663 171.192C41.2941 169.242 34.6398 166.559 28.9033 163.145C23.2815 159.731 18.8644 155.76 15.6519 151.232C12.4395 146.633 10.8333 141.722 10.8333 136.496C10.8333 131.271 12.4395 126.429 15.6519 121.97C18.8644 117.442 23.3388 113.47 29.0753 110.056C34.9266 106.643 41.6383 103.995 49.2105 102.114C56.8974 100.233 65.2153 99.2924 74.1643 99.2924C79.9008 99.2924 85.5226 99.7452 91.0296 100.651C96.5367 101.557 101.757 102.846 106.69 104.518C111.624 106.19 116.041 108.21 119.942 110.579L108.067 119.044Z" fill="#1F4E75"/>
<path d="M192.156 99.2924C201.105 99.2924 209.423 100.233 217.11 102.114C224.911 103.995 231.68 106.643 237.417 110.056C243.268 113.47 247.8 117.442 251.012 121.97C254.339 126.429 256.003 131.271 256.003 136.496C256.003 141.722 254.339 146.633 251.012 151.232C247.8 155.76 243.268 159.731 237.417 163.145C231.68 166.559 224.911 169.242 217.11 171.192C209.423 173.073 201.105 174.014 192.156 174.014C183.207 174.014 174.831 173.073 167.03 171.192C159.343 169.242 152.574 166.559 146.723 163.145C140.986 159.731 136.454 155.76 133.127 151.232C129.915 146.633 128.308 141.722 128.308 136.496C128.308 131.271 129.915 126.394 133.127 121.866C136.454 117.337 140.986 113.401 146.723 110.056C152.574 106.643 159.343 103.995 167.03 102.114C174.831 100.233 183.207 99.2924 192.156 99.2924ZM192.328 109.743C186.362 109.743 180.74 110.44 175.462 111.833C170.3 113.157 165.71 115.038 161.695 117.476C157.679 119.915 154.524 122.771 152.23 126.046C150.05 129.251 148.96 132.734 148.96 136.496C148.96 140.259 150.107 143.777 152.402 147.051C154.696 150.326 157.851 153.217 161.867 155.725C165.883 158.164 170.472 160.08 175.635 161.473C180.912 162.867 186.477 163.563 192.328 163.563C198.179 163.563 203.686 162.867 208.849 161.473C214.127 160.08 218.716 158.164 222.617 155.725C226.517 153.217 229.558 150.326 231.738 147.051C234.032 143.777 235.18 140.259 235.18 136.496C235.18 132.734 234.032 129.251 231.738 126.046C229.558 122.771 226.517 119.915 222.617 117.476C218.716 115.038 214.127 113.157 208.849 111.833C203.686 110.44 198.179 109.743 192.328 109.743Z" fill="#1F4E75"/>
<path d="M277.613 100.024H301.19L342.837 149.664L384.14 100.024H407.717V173.178H388.959L388.787 117.267L349.205 165.549H336.298L296.371 117.267V173.178H277.613V100.024Z" fill="#1F4E75"/>
<path d="M439.457 100.024H459.764V173.178H439.457V100.024Z" fill="#1F4E75"/>
<path d="M491.388 100.024H511.351L581.049 158.025L575.886 159.07V100.024H595.849V173.178H575.886L506.36 115.282L511.695 114.237V173.178H491.388V100.024Z" fill="#1F4E75"/>
<path d="M717.003 118.103C712.414 115.456 707.022 113.401 700.826 111.938C694.745 110.405 688.55 109.638 682.24 109.638C676.044 109.638 670.308 110.335 665.03 111.729C659.753 113.122 655.106 115.038 651.091 117.476C647.075 119.915 643.92 122.771 641.625 126.046C639.445 129.251 638.356 132.734 638.356 136.496C638.356 140.259 639.445 143.777 641.625 147.051C643.92 150.326 647.075 153.217 651.091 155.725C655.106 158.164 659.753 160.08 665.03 161.473C670.423 162.867 676.216 163.563 682.412 163.563C688.034 163.563 693.828 162.867 699.794 161.473C705.874 160.08 711.324 158.199 716.143 155.83L727.845 164.399C723.83 166.281 719.183 167.953 713.905 169.416C708.743 170.879 703.35 172.028 697.728 172.864C692.107 173.631 686.542 174.014 681.035 174.014C672.086 174.014 663.768 173.073 656.081 171.192C648.509 169.242 641.797 166.559 635.946 163.145C630.21 159.731 625.735 155.76 622.523 151.232C619.31 146.633 617.704 141.722 617.704 136.496C617.704 131.271 619.31 126.429 622.523 121.97C625.85 117.442 630.439 113.47 636.29 110.056C642.142 106.643 648.968 103.995 656.77 102.114C664.686 100.233 673.176 99.2924 682.24 99.2924C687.976 99.2924 693.598 99.7104 699.105 100.546C704.727 101.382 710.062 102.567 715.11 104.1C720.158 105.632 724.633 107.479 728.533 109.638L717.003 118.103ZM710.119 137.437H727.845V164.399H710.119V137.437Z" fill="#1F4E75"/>
<path d="M876.287 116.954C871.927 115.282 867.624 113.958 863.379 112.983C859.134 112.007 855.119 111.311 851.333 110.893C847.547 110.474 844.105 110.265 841.007 110.265C835.041 110.265 830.28 110.962 826.723 112.356C823.167 113.749 821.388 115.769 821.388 118.417C821.388 120.786 822.536 122.736 824.83 124.269C827.24 125.732 830.337 126.952 834.123 127.927C838.024 128.833 842.269 129.704 846.858 130.54C851.562 131.376 856.209 132.316 860.798 133.361C865.387 134.337 869.632 135.626 873.533 137.228C877.434 138.83 880.532 140.886 882.826 143.394C885.121 145.832 886.268 148.933 886.268 152.695C886.268 157.014 884.318 160.777 880.417 163.981C876.516 167.117 871.124 169.555 864.24 171.297C857.471 173.039 849.669 173.909 840.835 173.909C834.525 173.909 828.387 173.422 822.421 172.446C816.455 171.401 810.833 170.008 805.555 168.266C800.393 166.524 795.746 164.504 791.616 162.205L800.393 152.068C804.523 154.367 808.883 156.318 813.472 157.92C818.176 159.522 822.88 160.742 827.584 161.578C832.402 162.414 836.934 162.832 841.179 162.832C848.292 162.832 853.799 161.996 857.7 160.324C861.716 158.652 863.724 156.318 863.724 153.322C863.724 150.883 862.519 148.933 860.11 147.469C857.815 145.937 854.717 144.683 850.817 143.707C847.03 142.732 842.785 141.861 838.081 141.095C833.492 140.328 828.846 139.457 824.142 138.482C819.553 137.437 815.308 136.148 811.407 134.615C807.621 133.083 804.523 131.097 802.114 128.658C799.819 126.22 798.672 123.12 798.672 119.357C798.672 115.247 800.507 111.694 804.179 108.698C807.85 105.632 812.956 103.264 819.495 101.592C826.15 99.9194 833.836 99.0834 842.556 99.0834C850.358 99.0834 857.93 99.7801 865.272 101.173C872.615 102.567 879.098 104.378 884.719 106.608L876.287 116.954Z" fill="#1F4E75"/>
<path d="M963.895 99.2924C972.844 99.2924 981.162 100.233 988.849 102.114C996.651 103.995 1003.42 106.643 1009.16 110.056C1015.01 113.47 1019.54 117.442 1022.75 121.97C1026.08 126.429 1027.74 131.271 1027.74 136.496C1027.74 141.722 1026.08 146.633 1022.75 151.232C1019.54 155.76 1015.01 159.731 1009.16 163.145C1003.42 166.559 996.651 169.242 988.849 171.192C981.162 173.073 972.844 174.014 963.895 174.014C954.946 174.014 946.571 173.073 938.769 171.192C931.082 169.242 924.313 166.559 918.462 163.145C912.726 159.731 908.194 155.76 904.867 151.232C901.654 146.633 900.048 141.722 900.048 136.496C900.048 131.271 901.654 126.394 904.867 121.866C908.194 117.337 912.726 113.401 918.462 110.056C924.313 106.643 931.082 103.995 938.769 102.114C946.571 100.233 954.946 99.2924 963.895 99.2924ZM964.067 109.743C958.101 109.743 952.479 110.44 947.202 111.833C942.039 113.157 937.45 115.038 933.434 117.476C929.419 119.915 926.264 122.771 923.969 126.046C921.789 129.251 920.699 132.734 920.699 136.496C920.699 140.259 921.847 143.777 924.141 147.051C926.436 150.326 929.591 153.217 933.606 155.725C937.622 158.164 942.211 160.08 947.374 161.473C952.652 162.867 958.216 163.563 964.067 163.563C969.919 163.563 975.426 162.867 980.588 161.473C985.866 160.08 990.455 158.164 994.356 155.725C998.257 153.217 1001.3 150.326 1003.48 147.051C1005.77 143.777 1006.92 140.259 1006.92 136.496C1006.92 132.734 1005.77 129.251 1003.48 126.046C1001.3 122.771 998.257 119.915 994.356 117.476C990.455 115.038 985.866 113.157 980.588 111.833C975.426 110.44 969.919 109.743 964.067 109.743Z" fill="#1F4E75"/>
<path d="M1098.34 99.2924C1107.29 99.2924 1115.61 100.233 1123.3 102.114C1131.1 103.995 1137.87 106.643 1143.61 110.056C1149.46 113.47 1153.99 117.442 1157.2 121.97C1160.53 126.429 1162.19 131.271 1162.19 136.496C1162.19 141.722 1160.53 146.633 1157.2 151.232C1153.99 155.76 1149.46 159.731 1143.61 163.145C1137.87 166.559 1131.1 169.242 1123.3 171.192C1115.61 173.073 1107.29 174.014 1098.34 174.014C1089.4 174.014 1081.02 173.073 1073.22 171.192C1065.53 169.242 1058.76 166.559 1052.91 163.145C1047.17 159.731 1042.64 155.76 1039.32 151.232C1036.1 146.633 1034.5 141.722 1034.5 136.496C1034.5 131.271 1036.1 126.394 1039.32 121.866C1042.64 117.337 1047.17 113.401 1052.91 110.056C1058.76 106.643 1065.53 103.995 1073.22 102.114C1081.02 100.233 1089.4 99.2924 1098.34 99.2924ZM1098.52 109.743C1092.55 109.743 1086.93 110.44 1081.65 111.833C1076.49 113.157 1071.9 115.038 1067.88 117.476C1063.87 119.915 1060.71 122.771 1058.42 126.046C1056.24 129.251 1055.15 132.734 1055.15 136.496C1055.15 140.259 1056.3 143.777 1058.59 147.051C1060.89 150.326 1064.04 153.217 1068.06 155.725C1072.07 158.164 1076.66 160.08 1081.82 161.473C1087.1 162.867 1092.67 163.563 1098.52 163.563C1104.37 163.563 1109.87 162.867 1115.04 161.473C1120.32 160.08 1124.9 158.164 1128.81 155.725C1132.71 153.217 1135.75 150.326 1137.93 147.051C1140.22 143.777 1141.37 140.259 1141.37 136.496C1141.37 132.734 1140.22 129.251 1137.93 126.046C1135.75 122.771 1132.71 119.915 1128.81 117.476C1124.9 115.038 1120.32 113.157 1115.04 111.833C1109.87 110.44 1104.37 109.743 1098.52 109.743Z" fill="#1F4E75"/>
<path d="M1183.8 100.024H1203.76L1273.46 158.025L1268.3 159.07V100.024H1288.26V173.178H1268.3L1198.77 115.282L1204.11 114.237V173.178H1183.8V100.024Z" fill="#1F4E75"/>
<path d="M108.067 119.044L106.558 121.293L108.113 122.337L109.639 121.249L108.067 119.044ZM92.5785 112.147L93.3094 109.539L92.5785 112.147ZM57.6432 111.729L58.3158 114.352L58.3252 114.35L58.3345 114.347L57.6432 111.729ZM43.8755 117.372L42.4698 115.057L42.4548 115.066L42.4399 115.075L43.8755 117.372ZM34.7545 125.941L36.9939 127.465L37.0015 127.453L37.009 127.442L34.7545 125.941ZM34.7545 146.842L32.5 148.343L32.5075 148.355L32.5151 148.366L34.7545 146.842ZM43.8755 155.307L42.4399 157.604L42.4548 157.613L42.4698 157.622L43.8755 155.307ZM57.6432 161.055L56.9375 163.67L56.9446 163.672L56.9518 163.674L57.6432 161.055ZM92.4064 160.846L93.0927 163.466L93.1072 163.462L93.1217 163.458L92.4064 160.846ZM108.067 154.367L109.516 152.079L108.115 151.191L106.687 152.036L108.067 154.367ZM120.114 161.996L121.519 164.311L125.252 162.044L121.563 159.708L120.114 161.996ZM106.346 168.371L105.449 165.815L105.44 165.818L105.431 165.821L106.346 168.371ZM90.3412 172.551L89.8783 169.882L89.8689 169.884L90.3412 172.551ZM48.8663 171.192L48.1906 173.815L48.202 173.818L48.2133 173.821L48.8663 171.192ZM28.9033 163.145L27.4975 165.46L27.5078 165.467L27.5182 165.473L28.9033 163.145ZM15.6519 151.232L13.4317 152.783L13.4373 152.791L13.4429 152.799L15.6519 151.232ZM15.6519 121.97L17.8493 123.553L17.8552 123.545L17.8609 123.537L15.6519 121.97ZM29.0753 110.056L27.7105 107.717L27.7004 107.723L27.6903 107.729L29.0753 110.056ZM49.2105 102.114L48.5667 99.4833L48.5575 99.4856L49.2105 102.114ZM91.0296 100.651L90.5901 103.323V103.323L91.0296 100.651ZM106.69 104.518L105.821 107.083V107.083L106.69 104.518ZM119.942 110.579L121.514 112.784L124.861 110.398L121.347 108.264L119.942 110.579ZM217.11 102.114L216.466 104.745L216.475 104.747L217.11 102.114ZM237.417 110.056L236.032 112.384L236.042 112.39L236.052 112.396L237.417 110.056ZM251.012 121.97L248.803 123.537L248.822 123.564L248.842 123.59L251.012 121.97ZM251.012 151.232L248.818 149.644L248.811 149.654L248.803 149.665L251.012 151.232ZM237.417 163.145L236.052 160.806L236.042 160.812L236.032 160.818L237.417 163.145ZM217.11 171.192L217.753 173.823L217.766 173.82L217.11 171.192ZM167.03 171.192L166.364 173.817L166.379 173.821L166.395 173.825L167.03 171.192ZM146.723 163.145L145.338 165.473L145.348 165.479L145.358 165.485L146.723 163.145ZM133.127 151.232L130.907 152.783L130.925 152.809L130.944 152.835L133.127 151.232ZM133.127 121.866L130.944 120.262L130.931 120.28L130.918 120.299L133.127 121.866ZM146.723 110.056L148.087 112.396L148.087 112.396L146.723 110.056ZM167.03 102.114L166.395 99.4811L166.386 99.4833L167.03 102.114ZM175.462 111.833L176.135 114.457L176.145 114.454L176.154 114.452L175.462 111.833ZM161.695 117.476L160.289 115.161V115.161L161.695 117.476ZM152.23 126.046L150.012 124.492L150.001 124.507L149.99 124.523L152.23 126.046ZM152.402 147.051L150.184 148.606L152.402 147.051ZM161.867 155.725L160.432 158.023L160.447 158.032L160.461 158.04L161.867 155.725ZM175.635 161.473L174.929 164.088L174.936 164.09L174.943 164.092L175.635 161.473ZM208.849 161.473L208.158 158.855L208.15 158.857L208.143 158.858L208.849 161.473ZM222.617 155.725L224.052 158.022L224.067 158.013L224.081 158.004L222.617 155.725ZM231.738 147.051L229.52 145.497L229.501 145.524L229.483 145.551L231.738 147.051ZM231.738 126.046L229.483 127.547L229.509 127.585L229.536 127.622L231.738 126.046ZM222.617 117.476L221.181 119.773L222.617 117.476ZM208.849 111.833L208.143 114.448L208.167 114.454L208.19 114.46L208.849 111.833ZM277.613 100.024V97.3156H274.905V100.024H277.613ZM301.19 100.024L303.265 98.2832L302.453 97.3156H301.19V100.024ZM342.837 149.664L340.762 151.405L342.846 153.888L344.919 151.396L342.837 149.664ZM384.14 100.024V97.3156H382.87L382.058 98.2917L384.14 100.024ZM407.717 100.024H410.425V97.3156H407.717V100.024ZM407.717 173.178V175.886H410.425V173.178H407.717ZM388.959 173.178L386.25 173.186L386.259 175.886H388.959V173.178ZM388.787 117.267L391.495 117.259L391.472 109.72L386.692 115.55L388.787 117.267ZM349.205 165.549V168.257H350.487L351.299 167.266L349.205 165.549ZM336.298 165.549L334.21 167.275L335.023 168.257H336.298V165.549ZM296.371 117.267L298.459 115.541L293.663 109.742V117.267H296.371ZM296.371 173.178V175.886H299.08V173.178H296.371ZM277.613 173.178H274.905V175.886H277.613V173.178ZM439.457 100.024V97.3156H436.748V100.024H439.457ZM459.764 100.024H462.472V97.3156H459.764V100.024ZM459.764 173.178V175.886H462.472V173.178H459.764ZM439.457 173.178H436.748V175.886H439.457V173.178ZM491.388 100.024V97.3156H488.679V100.024H491.388ZM511.351 100.024L513.083 97.9421L512.33 97.3156H511.351V100.024ZM581.049 158.025L581.587 160.679L587.126 159.558L582.782 155.943L581.049 158.025ZM575.886 159.07H573.178V162.381L576.424 161.724L575.886 159.07ZM575.886 100.024V97.3156H573.178V100.024H575.886ZM595.849 100.024H598.558V97.3156H595.849V100.024ZM595.849 173.178V175.886H598.558V173.178H595.849ZM575.886 173.178L574.153 175.259L574.906 175.886H575.886V173.178ZM506.36 115.282L505.839 112.624L500.25 113.719L504.627 117.363L506.36 115.282ZM511.695 114.237H514.403V110.946L511.174 111.579L511.695 114.237ZM511.695 173.178V175.886H514.403V173.178H511.695ZM491.388 173.178H488.679V175.886H491.388V173.178ZM717.003 118.103L715.65 120.449L717.181 121.333L718.606 120.287L717.003 118.103ZM700.826 111.938L700.164 114.564L700.184 114.569L700.204 114.573L700.826 111.938ZM665.03 111.729L665.722 114.347V114.347L665.03 111.729ZM651.091 117.476L649.685 115.161V115.161L651.091 117.476ZM641.625 126.046L639.407 124.492L639.397 124.507L639.386 124.523L641.625 126.046ZM641.625 147.051L639.371 148.552L639.389 148.579L639.407 148.606L641.625 147.051ZM651.091 155.725L649.656 158.023L649.67 158.032L649.685 158.04L651.091 155.725ZM665.03 161.473L664.339 164.092L664.346 164.094L664.353 164.095L665.03 161.473ZM699.794 161.473L699.189 158.833L699.178 158.836L699.794 161.473ZM716.143 155.83L717.743 153.645L716.42 152.676L714.948 153.399L716.143 155.83ZM727.845 164.399L728.994 166.852L730.553 166.121V164.399H727.845ZM713.905 169.416L713.182 166.806L713.174 166.808L713.167 166.81L713.905 169.416ZM697.728 172.864L698.094 175.548L698.111 175.546L698.127 175.543L697.728 172.864ZM656.081 171.192L655.406 173.815L655.422 173.819L655.438 173.823L656.081 171.192ZM635.946 163.145L634.561 165.473L634.571 165.479L634.581 165.485L635.946 163.145ZM622.523 151.232L620.303 152.783L620.308 152.791L620.314 152.799L622.523 151.232ZM622.523 121.97L620.34 120.367L620.333 120.377L620.325 120.387L622.523 121.97ZM656.77 102.114L656.144 99.4791L656.135 99.4812L656.77 102.114ZM699.105 100.546L698.699 103.224L698.707 103.225L699.105 100.546ZM715.11 104.1L714.323 106.691V106.691L715.11 104.1ZM728.533 109.638L730.136 111.822L733.546 109.318L729.845 107.269L728.533 109.638ZM710.119 137.437V134.729H707.411V137.437H710.119ZM727.845 137.437H730.553V134.729H727.845V137.437ZM710.119 164.399H707.411V167.108H710.119V164.399ZM876.287 116.954L875.317 119.483L877.147 120.185L878.386 118.665L876.287 116.954ZM851.333 110.893L851.036 113.584L851.333 110.893ZM826.723 112.356L827.711 114.877V114.877L826.723 112.356ZM824.83 124.269L823.326 126.521L823.374 126.554L823.424 126.584L824.83 124.269ZM834.123 127.927L833.448 130.55L833.479 130.558L833.511 130.565L834.123 127.927ZM846.858 130.54L846.373 133.204L846.384 133.206L846.858 130.54ZM860.798 133.361L860.197 136.002L860.216 136.006L860.235 136.01L860.798 133.361ZM873.533 137.228L874.562 134.723L873.533 137.228ZM882.826 143.394L880.828 145.222L880.841 145.236L880.854 145.25L882.826 143.394ZM880.417 163.981L882.114 166.092L882.125 166.083L882.136 166.074L880.417 163.981ZM864.24 171.297L863.576 168.671L863.565 168.674L864.24 171.297ZM822.421 172.446L821.953 175.114L821.969 175.117L821.984 175.119L822.421 172.446ZM805.555 168.266L804.69 170.832L804.698 170.835L804.707 170.838L805.555 168.266ZM791.616 162.205L789.568 160.432L787.387 162.951L790.299 164.571L791.616 162.205ZM800.393 152.068L801.71 149.701L799.786 148.631L798.345 150.295L800.393 152.068ZM813.472 157.92L812.579 160.477L812.589 160.48L812.599 160.484L813.472 157.92ZM827.584 161.578L827.11 164.244L827.121 164.246L827.584 161.578ZM857.7 160.324L856.659 157.823L856.646 157.829L856.633 157.834L857.7 160.324ZM860.11 147.469L858.605 149.722L858.654 149.754L858.704 149.784L860.11 147.469ZM850.817 143.707L850.141 146.33L850.15 146.332L850.16 146.335L850.817 143.707ZM838.081 141.095L837.635 143.766L837.646 143.768L838.081 141.095ZM824.142 138.482L823.54 141.123L823.566 141.129L823.592 141.134L824.142 138.482ZM811.407 134.615L810.39 137.126L810.403 137.131L810.416 137.136L811.407 134.615ZM802.114 128.658L800.141 130.514L800.164 130.539L800.187 130.562L802.114 128.658ZM804.179 108.698L805.891 110.796L805.903 110.787L805.915 110.777L804.179 108.698ZM819.495 101.592L818.835 98.9648L818.824 98.9676L819.495 101.592ZM865.272 101.173L864.768 103.834V103.834L865.272 101.173ZM884.719 106.608L886.819 108.319L889.154 105.453L885.718 104.09L884.719 106.608ZM988.849 102.114L988.205 104.745L988.214 104.747L988.849 102.114ZM1009.16 110.056L1007.77 112.384L1007.78 112.39L1007.79 112.396L1009.16 110.056ZM1022.75 121.97L1020.54 123.537L1020.56 123.564L1020.58 123.59L1022.75 121.97ZM1022.75 151.232L1020.56 149.644L1020.55 149.654L1020.54 149.665L1022.75 151.232ZM1009.16 163.145L1007.79 160.806L1007.78 160.812L1007.77 160.818L1009.16 163.145ZM988.849 171.192L989.493 173.823L989.506 173.82L988.849 171.192ZM938.769 171.192L938.103 173.817L938.119 173.821L938.134 173.825L938.769 171.192ZM918.462 163.145L917.077 165.473L917.087 165.479L917.097 165.485L918.462 163.145ZM904.867 151.232L902.646 152.783L902.665 152.809L902.684 152.835L904.867 151.232ZM904.867 121.866L902.684 120.262L902.671 120.28L902.658 120.299L904.867 121.866ZM918.462 110.056L919.826 112.396L919.827 112.396L918.462 110.056ZM938.769 102.114L938.134 99.4811L938.125 99.4833L938.769 102.114ZM947.202 111.833L947.875 114.457L947.884 114.454L947.893 114.452L947.202 111.833ZM933.434 117.476L932.029 115.161V115.161L933.434 117.476ZM923.969 126.046L921.751 124.492L921.74 124.507L921.73 124.523L923.969 126.046ZM924.141 147.051L921.923 148.606L924.141 147.051ZM933.606 155.725L932.172 158.023L932.186 158.032L932.201 158.04L933.606 155.725ZM947.374 161.473L946.668 164.088L946.675 164.09L946.683 164.092L947.374 161.473ZM980.588 161.473L979.897 158.855L979.89 158.857L979.883 158.858L980.588 161.473ZM994.356 155.725L995.792 158.022L995.806 158.013L995.821 158.004L994.356 155.725ZM1003.48 147.051L1001.26 145.497L1001.24 145.524L1001.22 145.551L1003.48 147.051ZM1003.48 126.046L1001.22 127.547L1001.25 127.585L1001.28 127.622L1003.48 126.046ZM994.356 117.476L992.92 119.773L994.356 117.476ZM980.588 111.833L979.883 114.448L979.906 114.454L979.93 114.46L980.588 111.833ZM1123.3 102.114L1122.65 104.745L1122.66 104.747L1123.3 102.114ZM1143.61 110.056L1142.22 112.384L1142.23 112.39L1142.24 112.396L1143.61 110.056ZM1157.2 121.97L1154.99 123.537L1155.01 123.564L1155.03 123.59L1157.2 121.97ZM1157.2 151.232L1155.01 149.644L1155 149.654L1154.99 149.665L1157.2 151.232ZM1143.61 163.145L1142.24 160.806L1142.23 160.812L1142.22 160.818L1143.61 163.145ZM1123.3 171.192L1123.94 173.823L1123.96 173.82L1123.3 171.192ZM1073.22 171.192L1072.55 173.817L1072.57 173.821L1072.58 173.825L1073.22 171.192ZM1052.91 163.145L1051.53 165.473L1051.54 165.479L1051.55 165.485L1052.91 163.145ZM1039.32 151.232L1037.1 152.783L1037.11 152.809L1037.13 152.835L1039.32 151.232ZM1039.32 121.866L1037.13 120.262L1037.12 120.28L1037.11 120.299L1039.32 121.866ZM1052.91 110.056L1054.28 112.396L1054.28 112.396L1052.91 110.056ZM1073.22 102.114L1072.58 99.4811L1072.57 99.4833L1073.22 102.114ZM1081.65 111.833L1082.32 114.457L1082.33 114.454L1082.34 114.452L1081.65 111.833ZM1067.88 117.476L1066.48 115.161V115.161L1067.88 117.476ZM1058.42 126.046L1056.2 124.492L1056.19 124.507L1056.18 124.523L1058.42 126.046ZM1058.59 147.051L1056.37 148.606L1058.59 147.051ZM1068.06 155.725L1066.62 158.023L1066.64 158.032L1066.65 158.04L1068.06 155.725ZM1081.82 161.473L1081.12 164.088L1081.12 164.09L1081.13 164.092L1081.82 161.473ZM1115.04 161.473L1114.35 158.855L1114.34 158.857L1114.33 158.858L1115.04 161.473ZM1128.81 155.725L1130.24 158.022L1130.26 158.013L1130.27 158.004L1128.81 155.725ZM1137.93 147.051L1135.71 145.497L1135.69 145.524L1135.67 145.551L1137.93 147.051ZM1137.93 126.046L1135.67 127.547L1135.7 127.585L1135.72 127.622L1137.93 126.046ZM1128.81 117.476L1127.37 119.773L1128.81 117.476ZM1115.04 111.833L1114.33 114.448L1114.36 114.454L1114.38 114.46L1115.04 111.833ZM1183.8 100.024V97.3156H1181.09V100.024H1183.8ZM1203.76 100.024L1205.5 97.9421L1204.74 97.3156H1203.76V100.024ZM1273.46 158.025L1274 160.679L1279.54 159.558L1275.2 155.943L1273.46 158.025ZM1268.3 159.07H1265.59V162.381L1268.84 161.724L1268.3 159.07ZM1268.3 100.024V97.3156H1265.59V100.024H1268.3ZM1288.26 100.024H1290.97V97.3156H1288.26V100.024ZM1288.26 173.178V175.886H1290.97V173.178H1288.26ZM1268.3 173.178L1266.57 175.259L1267.32 175.886H1268.3V173.178ZM1198.77 115.282L1198.25 112.624L1192.66 113.719L1197.04 117.363L1198.77 115.282ZM1204.11 114.237H1206.82V110.946L1203.59 111.579L1204.11 114.237ZM1204.11 173.178V175.886H1206.82V173.178H1204.11ZM1183.8 173.178H1181.09V175.886H1183.8V173.178ZM109.576 116.795C104.939 113.683 99.5037 111.275 93.3094 109.539L91.8476 114.754C97.5852 116.363 102.475 118.553 106.558 121.293L109.576 116.795ZM93.3094 109.539C87.1101 107.801 80.8409 106.93 74.5085 106.93V112.347C80.3374 112.347 86.115 113.148 91.8476 114.754L93.3094 109.539ZM74.5085 106.93C68.3306 106.93 62.4748 107.652 56.9518 109.11L58.3345 114.347C63.3666 113.019 68.7544 112.347 74.5085 112.347V106.93ZM56.9705 109.105C51.5835 110.486 46.7415 112.463 42.4698 115.057L45.2813 119.687C49.0407 117.404 53.377 115.618 58.3158 114.352L56.9705 109.105ZM42.4399 115.075C38.2675 117.684 34.9263 120.796 32.5 124.441L37.009 127.442C38.9424 124.538 41.6819 121.937 45.3111 119.668L42.4399 115.075ZM32.5151 124.418C30.0395 128.058 28.7763 132.069 28.7763 136.392H34.193C34.193 133.19 35.1098 130.235 36.9939 127.465L32.5151 124.418ZM28.7763 136.392C28.7763 140.654 30.0445 144.655 32.5 148.343L37.009 145.342C35.1047 142.481 34.193 139.515 34.193 136.392H28.7763ZM32.5151 148.366C34.9421 151.934 38.2791 155.003 42.4399 157.604L45.3111 153.011C41.6703 150.735 38.9267 148.161 36.9939 145.319L32.5151 148.366ZM42.4698 157.622C46.7311 160.21 51.5617 162.219 56.9375 163.67L58.3489 158.44C53.3989 157.105 49.0511 155.282 45.2813 152.992L42.4698 157.622ZM56.9518 163.674C62.4748 165.132 68.3306 165.854 74.5085 165.854V160.437C68.7544 160.437 63.3666 159.765 58.3345 158.437L56.9518 163.674ZM74.5085 165.854C80.8195 165.854 87.0162 165.058 93.0927 163.466L91.7201 158.226C86.0941 159.7 80.3588 160.437 74.5085 160.437V165.854ZM93.1217 163.458C99.1747 161.801 104.623 159.553 109.447 156.697L106.687 152.036C102.332 154.615 97.3406 156.687 91.691 158.234L93.1217 163.458ZM106.618 156.655L118.665 164.284L121.563 159.708L109.516 152.079L106.618 156.655ZM118.708 159.681C114.877 162.007 110.463 164.056 105.449 165.815L107.243 170.926C112.555 169.062 117.319 166.861 121.519 164.311L118.708 159.681ZM105.431 165.821C100.539 167.577 95.356 168.932 89.8783 169.882L90.8042 175.219C96.57 174.219 102.057 172.787 107.261 170.92L105.431 165.821ZM89.8689 169.884C84.5217 170.831 79.0581 171.306 73.4759 171.306V176.722C79.3667 176.722 85.1466 176.221 90.8136 175.218L89.8689 169.884ZM73.4759 171.306C64.8333 171.306 56.8519 170.385 49.5193 168.564L48.2133 173.821C56.0251 175.761 64.4501 176.722 73.4759 176.722V171.306ZM49.542 168.57C42.1775 166.672 35.7695 164.08 30.2883 160.818L27.5182 165.473C33.51 169.038 40.4107 171.811 48.1906 173.815L49.542 168.57ZM30.309 160.83C24.9458 157.574 20.8237 153.841 17.8609 149.665L13.4429 152.799C16.905 157.679 21.6172 161.889 27.4975 165.46L30.309 160.83ZM17.8721 149.681C14.9528 145.502 13.5416 141.125 13.5416 136.496H8.12492C8.12492 142.318 9.92615 147.765 13.4317 152.783L17.8721 149.681ZM13.5416 136.496C13.5416 131.87 14.9508 127.576 17.8493 123.553L13.4545 120.387C9.92815 125.282 8.12492 130.672 8.12492 136.496H13.5416ZM17.8609 123.537C20.8152 119.372 24.9841 115.643 30.4604 112.384L27.6903 107.729C21.6936 111.298 16.9136 115.511 13.4429 120.403L17.8609 123.537ZM30.4402 112.396C36.0384 109.13 42.504 106.571 49.8634 104.742L48.5575 99.4856C40.7725 101.42 33.8148 104.156 27.7105 107.717L30.4402 112.396ZM49.8543 104.745C57.3051 102.921 65.4045 102.001 74.1643 102.001V96.5841C65.0262 96.5841 56.4897 97.5445 48.5667 99.4833L49.8543 104.745ZM74.1643 102.001C79.7577 102.001 85.2323 102.442 90.5901 103.323L91.4691 97.9785C85.8128 97.0483 80.0439 96.5841 74.1643 96.5841V102.001ZM90.5901 103.323C95.9615 104.207 101.037 105.461 105.821 107.083L107.56 101.953C102.477 100.23 97.1119 98.9066 91.4691 97.9785L90.5901 103.323ZM105.821 107.083C110.593 108.7 114.826 110.641 118.536 112.894L121.347 108.264C117.256 105.779 112.655 103.68 107.56 101.953L105.821 107.083ZM118.37 108.374L106.495 116.839L109.639 121.249L121.514 112.784L118.37 108.374ZM192.156 102.001C200.915 102.001 209.015 102.921 216.466 104.745L217.753 99.4833C209.83 97.5445 201.294 96.5841 192.156 96.5841V102.001ZM216.475 104.747C224.064 106.577 230.57 109.134 236.032 112.384L238.802 107.729C232.79 104.152 225.758 101.413 217.744 99.4812L216.475 104.747ZM236.052 112.396C241.642 115.657 245.858 119.384 248.803 123.537L253.221 120.403C249.742 115.499 244.894 111.284 238.782 107.717L236.052 112.396ZM248.842 123.59C251.844 127.613 253.295 131.894 253.295 136.496H258.711C258.711 130.648 256.835 125.245 253.183 120.35L248.842 123.59ZM253.295 136.496C253.295 141.102 251.841 145.466 248.818 149.644L253.206 152.819C256.837 147.801 258.711 142.342 258.711 136.496H253.295ZM248.803 149.665C245.858 153.817 241.642 157.545 236.052 160.806L238.782 165.485C244.894 161.918 249.742 157.703 253.221 152.799L248.803 149.665ZM236.032 160.818C230.563 164.073 224.049 166.665 216.453 168.565L217.766 173.82C225.774 171.818 232.798 169.046 238.802 165.473L236.032 160.818ZM216.466 168.562C209.015 170.385 200.915 171.306 192.156 171.306V176.722C201.294 176.722 209.83 175.762 217.753 173.823L216.466 168.562ZM192.156 171.306C183.396 171.306 175.236 170.385 167.665 168.559L166.395 173.825C174.427 175.762 183.017 176.722 192.156 176.722V171.306ZM167.696 168.567C160.214 166.668 153.687 164.073 148.087 160.806L145.358 165.485C151.461 169.045 158.472 171.815 166.364 173.817L167.696 168.567ZM148.108 160.818C142.625 157.555 138.386 153.815 135.31 149.628L130.944 152.835C134.523 157.706 139.347 161.908 145.338 165.473L148.108 160.818ZM135.347 149.681C132.428 145.502 131.017 141.125 131.017 136.496H125.6C125.6 142.318 127.401 147.765 130.907 152.783L135.347 149.681ZM131.017 136.496C131.017 131.869 132.427 127.534 135.336 123.433L130.918 120.299C127.402 125.255 125.6 130.674 125.6 136.496H131.017ZM135.31 123.469C138.381 119.289 142.613 115.587 148.087 112.396L145.359 107.717C139.359 111.214 134.527 115.385 130.944 120.262L135.31 123.469ZM148.087 112.396C153.679 109.133 160.198 106.574 167.674 104.745L166.386 99.4833C158.487 101.416 151.468 104.152 145.358 107.717L148.087 112.396ZM167.665 104.747C175.236 102.921 183.396 102.001 192.156 102.001V96.5841C183.017 96.5841 174.427 97.5446 166.395 99.4812L167.665 104.747ZM192.328 107.035C186.15 107.035 180.294 107.756 174.771 109.214L176.154 114.452C181.186 113.123 186.574 112.451 192.328 112.451V107.035ZM174.79 109.21C169.403 110.591 164.561 112.567 160.289 115.161L163.101 119.791C166.86 117.508 171.196 115.723 176.135 114.457L174.79 109.21ZM160.289 115.161C156.008 117.761 152.556 120.861 150.012 124.492L154.448 127.6C156.493 124.682 159.35 122.069 163.101 119.791L160.289 115.161ZM149.99 124.523C147.515 128.162 146.251 132.174 146.251 136.496H151.668C151.668 133.295 152.585 130.339 154.469 127.569L149.99 124.523ZM146.251 136.496C146.251 140.851 147.591 144.906 150.184 148.606L154.62 145.497C152.623 142.648 151.668 139.667 151.668 136.496H146.251ZM150.184 148.606C152.722 152.227 156.164 155.357 160.432 158.023L163.302 153.428C159.539 151.078 156.671 148.425 154.62 145.497L150.184 148.606ZM160.461 158.04C164.723 160.628 169.553 162.637 174.929 164.088L176.34 158.858C171.39 157.523 167.043 155.7 163.273 153.411L160.461 158.04ZM174.943 164.092C180.462 165.549 186.26 166.272 192.328 166.272V160.855C186.693 160.855 181.362 160.184 176.326 158.855L174.943 164.092ZM192.328 166.272C198.395 166.272 204.141 165.549 209.555 164.088L208.143 158.858C203.231 160.184 197.963 160.855 192.328 160.855V166.272ZM209.54 164.092C215.033 162.642 219.883 160.628 224.052 158.022L221.181 153.429C217.549 155.699 213.22 157.518 208.158 158.855L209.54 164.092ZM224.081 158.004C228.241 155.329 231.572 152.188 233.992 148.552L229.483 145.551C227.544 148.464 224.794 151.105 221.152 153.447L224.081 158.004ZM233.956 148.606C236.548 144.906 237.888 140.851 237.888 136.496H232.471C232.471 139.667 231.516 142.648 229.52 145.497L233.956 148.606ZM237.888 136.496C237.888 132.141 236.547 128.111 233.94 124.469L229.536 127.622C231.518 130.391 232.471 133.328 232.471 136.496H237.888ZM233.992 124.545C231.566 120.9 228.225 117.788 224.052 115.18L221.181 119.773C224.81 122.042 227.55 124.642 229.483 127.547L233.992 124.545ZM224.052 115.18C219.872 112.567 215.011 110.586 209.508 109.206L208.19 114.46C213.242 115.727 217.559 117.509 221.181 119.773L224.052 115.18ZM209.555 109.218C204.141 107.757 198.395 107.035 192.328 107.035V112.451C197.963 112.451 203.231 113.122 208.143 114.448L209.555 109.218ZM277.613 102.732H301.19V97.3156H277.613V102.732ZM299.115 101.765L340.762 151.405L344.912 147.923L303.265 98.2832L299.115 101.765ZM344.919 151.396L386.222 101.756L382.058 98.2917L340.755 147.932L344.919 151.396ZM384.14 102.732H407.717V97.3156H384.14V102.732ZM405.009 100.024V173.178H410.425V100.024H405.009ZM407.717 170.47H388.959V175.886H407.717V170.47ZM391.667 173.17L391.495 117.259L386.078 117.276L386.25 173.186L391.667 173.17ZM386.692 115.55L347.11 163.832L351.299 167.266L390.881 118.984L386.692 115.55ZM349.205 162.841H336.298V168.257H349.205V162.841ZM338.385 163.823L298.459 115.541L294.284 118.993L334.21 167.275L338.385 163.823ZM293.663 117.267V173.178H299.08V117.267H293.663ZM296.371 170.47H277.613V175.886H296.371V170.47ZM280.321 173.178V100.024H274.905V173.178H280.321ZM439.457 102.732H459.764V97.3156H439.457V102.732ZM457.055 100.024V173.178H462.472V100.024H457.055ZM459.764 170.47H439.457V175.886H459.764V170.47ZM442.165 173.178V100.024H436.748V173.178H442.165ZM491.388 102.732H511.351V97.3156H491.388V102.732ZM509.618 102.106L579.317 160.106L582.782 155.943L513.083 97.9421L509.618 102.106ZM580.512 155.37L575.349 156.415L576.424 161.724L581.587 160.679L580.512 155.37ZM578.595 159.07V100.024H573.178V159.07H578.595ZM575.886 102.732H595.849V97.3156H575.886V102.732ZM593.141 100.024V173.178H598.558V100.024H593.141ZM595.849 170.47H575.886V175.886H595.849V170.47ZM577.62 171.097L508.093 113.201L504.627 117.363L574.153 175.259L577.62 171.097ZM506.881 117.94L512.215 116.895L511.174 111.579L505.839 112.624L506.881 117.94ZM508.987 114.237V173.178H514.403V114.237H508.987ZM511.695 170.47H491.388V175.886H511.695V170.47ZM494.096 173.178V100.024H488.679V173.178H494.096ZM718.356 115.757C713.498 112.955 707.851 110.814 701.449 109.302L700.204 114.573C706.193 115.988 711.329 117.957 715.65 120.449L718.356 115.757ZM701.488 109.311C695.19 107.724 688.772 106.93 682.24 106.93V112.347C688.328 112.347 694.301 113.086 700.164 114.564L701.488 109.311ZM682.24 106.93C675.842 106.93 669.87 107.65 664.339 109.11L665.722 114.347C670.746 113.021 676.247 112.347 682.24 112.347V106.93ZM664.339 109.11C658.85 110.559 653.955 112.568 649.685 115.161L652.496 119.791C656.257 117.508 660.656 115.685 665.722 114.347L664.339 109.11ZM649.685 115.161C645.404 117.761 641.951 120.861 639.407 124.492L643.843 127.6C645.888 124.682 648.746 122.069 652.496 119.791L649.685 115.161ZM639.386 124.523C636.91 128.162 635.647 132.174 635.647 136.496H641.064C641.064 133.295 641.981 130.339 643.865 127.569L639.386 124.523ZM635.647 136.496C635.647 140.818 636.909 144.855 639.371 148.552L643.88 145.551C641.982 142.699 641.064 139.699 641.064 136.496H635.647ZM639.407 148.606C641.945 152.227 645.388 155.357 649.656 158.023L652.525 153.428C648.762 151.078 645.895 148.425 643.843 145.497L639.407 148.606ZM649.685 158.04C653.955 160.634 658.85 162.643 664.339 164.092L665.722 158.855C660.656 157.517 656.257 155.694 652.496 153.411L649.685 158.04ZM664.353 164.095C669.99 165.552 676.013 166.272 682.412 166.272V160.855C676.42 160.855 670.856 160.181 665.708 158.851L664.353 164.095ZM682.412 166.272C688.259 166.272 694.26 165.547 700.41 164.111L699.178 158.836C693.396 160.186 687.809 160.855 682.412 160.855V166.272ZM700.399 164.113C706.651 162.68 712.304 160.735 717.337 158.26L714.948 153.399C710.344 155.662 705.097 157.479 699.189 158.833L700.399 164.113ZM714.542 158.015L726.245 166.585L729.445 162.214L717.743 153.645L714.542 158.015ZM726.696 161.947C722.845 163.751 718.346 165.374 713.182 166.806L714.629 172.026C720.02 170.531 724.814 168.81 728.994 166.852L726.696 161.947ZM713.167 166.81C708.122 168.24 702.844 169.366 697.33 170.185L698.127 175.543C703.857 174.691 709.363 173.518 714.644 172.021L713.167 166.81ZM697.363 170.181C691.858 170.931 686.416 171.306 681.035 171.306V176.722C686.668 176.722 692.355 176.33 698.094 175.548L697.363 170.181ZM681.035 171.306C672.275 171.306 664.176 170.385 656.725 168.562L655.438 173.823C663.361 175.762 671.897 176.722 681.035 176.722V171.306ZM656.757 168.57C649.39 166.672 642.917 164.077 637.311 160.806L634.581 165.485C640.678 169.042 647.628 171.811 655.406 173.815L656.757 168.57ZM637.331 160.818C631.855 157.559 627.686 153.829 624.732 149.665L620.314 152.799C623.784 157.691 628.564 161.904 634.561 165.473L637.331 160.818ZM624.743 149.681C621.824 145.502 620.412 141.125 620.412 136.496H614.996C614.996 142.318 616.797 147.765 620.303 152.783L624.743 149.681ZM620.412 136.496C620.412 131.87 621.822 127.576 624.72 123.553L620.325 120.387C616.799 125.282 614.996 130.672 614.996 136.496H620.412ZM624.705 123.574C627.773 119.398 632.06 115.66 637.655 112.396L634.926 107.717C628.819 111.28 623.927 115.485 620.34 120.367L624.705 123.574ZM637.655 112.396C643.241 109.137 649.813 106.577 657.405 104.747L656.135 99.4812C648.123 101.413 641.042 104.149 634.926 107.717L637.655 112.396ZM657.396 104.749C665.085 102.922 673.363 102.001 682.24 102.001V96.5841C672.989 96.5841 664.287 97.5441 656.144 99.4791L657.396 104.749ZM682.24 102.001C687.844 102.001 693.33 102.409 698.699 103.224L699.512 97.8688C693.866 97.0117 688.108 96.5841 682.24 96.5841V102.001ZM698.707 103.225C704.207 104.043 709.412 105.2 714.323 106.691L715.897 101.508C710.712 99.9339 705.247 98.7217 699.504 97.8676L698.707 103.225ZM714.323 106.691C719.221 108.178 723.514 109.955 727.222 112.008L729.845 107.269C725.751 105.002 721.095 103.086 715.897 101.508L714.323 106.691ZM726.931 107.455L715.4 115.92L718.606 120.287L730.136 111.822L726.931 107.455ZM710.119 140.145H727.845V134.729H710.119V140.145ZM725.137 137.437V164.399H730.553V137.437H725.137ZM727.845 161.691H710.119V167.108H727.845V161.691ZM712.828 164.399V137.437H707.411V164.399H712.828ZM877.256 114.425C872.787 112.711 868.363 111.349 863.986 110.343L862.773 115.622C866.886 116.567 871.067 117.853 875.317 119.483L877.256 114.425ZM863.986 110.343C859.653 109.348 855.534 108.632 851.63 108.201L851.036 113.584C854.704 113.99 858.616 114.667 862.773 115.622L863.986 110.343ZM851.63 108.201C847.767 107.774 844.224 107.557 841.007 107.557V112.974C843.986 112.974 847.327 113.175 851.036 113.584L851.63 108.201ZM841.007 107.557C834.872 107.557 829.733 108.268 825.735 109.834L827.711 114.877C830.827 113.657 835.21 112.974 841.007 112.974V107.557ZM825.735 109.834C821.686 111.42 818.68 114.167 818.68 118.417H824.096C824.096 117.372 824.647 116.078 827.711 114.877L825.735 109.834ZM818.68 118.417C818.68 121.851 820.423 124.582 823.326 126.521L826.334 122.017C824.648 120.891 824.096 119.721 824.096 118.417H818.68ZM823.424 126.584C826.129 128.227 829.496 129.532 833.448 130.55L834.799 125.304C831.178 124.372 828.35 123.238 826.236 121.954L823.424 126.584ZM833.511 130.565C837.46 131.482 841.748 132.361 846.373 133.204L847.344 127.875C842.79 127.046 838.588 126.183 834.736 125.289L833.511 130.565ZM846.384 133.206C851.046 134.035 855.65 134.967 860.197 136.002L861.399 130.721C856.767 129.666 852.078 128.717 847.332 127.873L846.384 133.206ZM860.235 136.01C864.682 136.956 868.77 138.199 872.504 139.733L874.562 134.723C870.495 133.052 866.092 131.718 861.361 130.712L860.235 136.01ZM872.504 139.733C876.122 141.22 878.859 143.07 880.828 145.222L884.824 141.566C882.204 138.701 878.745 136.441 874.562 134.723L872.504 139.733ZM880.854 145.25C882.616 147.123 883.56 149.53 883.56 152.695H888.976C888.976 148.335 887.626 144.542 884.799 141.538L880.854 145.25ZM883.56 152.695C883.56 156.063 882.09 159.102 878.698 161.889L882.136 166.074C886.545 162.452 888.976 157.966 888.976 152.695H883.56ZM878.72 161.87C875.222 164.682 870.229 166.988 863.576 168.671L864.904 173.922C872.018 172.122 877.81 169.551 882.114 166.092L878.72 161.87ZM863.565 168.674C857.065 170.346 849.498 171.201 840.835 171.201V176.618C849.84 176.618 857.876 175.731 864.915 173.92L863.565 168.674ZM840.835 171.201C834.665 171.201 828.673 170.724 822.858 169.773L821.984 175.119C828.1 176.119 834.385 176.618 840.835 176.618V171.201ZM822.888 169.779C817.04 168.754 811.547 167.391 806.404 165.694L804.707 170.838C810.119 172.624 815.87 174.048 821.953 175.114L822.888 169.779ZM806.421 165.7C801.392 164.003 796.899 162.046 792.933 159.838L790.299 164.571C794.593 166.962 799.394 169.046 804.69 170.832L806.421 165.7ZM793.663 163.978L802.44 153.841L798.345 150.295L789.568 160.432L793.663 163.978ZM799.075 154.434C803.345 156.811 807.847 158.825 812.579 160.477L814.365 155.363C809.918 153.81 805.701 151.923 801.71 149.701L799.075 154.434ZM812.599 160.484C817.428 162.129 822.265 163.383 827.11 164.244L828.058 158.911C823.495 158.1 818.924 156.916 814.345 155.356L812.599 160.484ZM827.121 164.246C832.07 165.105 836.758 165.54 841.179 165.54V160.123C837.111 160.123 832.735 159.723 828.047 158.909L827.121 164.246ZM841.179 165.54C848.444 165.54 854.376 164.695 858.767 162.813L856.633 157.834C853.223 159.296 848.141 160.123 841.179 160.123V165.54ZM858.741 162.824C863.233 160.954 866.432 157.892 866.432 153.322H861.015C861.015 154.743 860.199 156.35 856.659 157.823L858.741 162.824ZM866.432 153.322C866.432 149.775 864.584 147.018 861.515 145.155L858.704 149.784C860.454 150.847 861.015 151.992 861.015 153.322H866.432ZM861.614 145.217C858.971 143.452 855.551 142.099 851.474 141.08L850.16 146.335C853.884 147.266 856.659 148.421 858.605 149.722L861.614 145.217ZM851.492 141.085C847.612 140.085 843.285 139.198 838.517 138.422L837.646 143.768C842.286 144.524 846.449 145.379 850.141 146.33L851.492 141.085ZM838.528 138.423C833.974 137.663 829.362 136.799 824.692 135.83L823.592 141.134C828.329 142.116 833.01 142.994 837.635 143.766L838.528 138.423ZM824.743 135.841C820.271 134.823 816.157 133.572 812.397 132.095L810.416 137.136C814.458 138.724 818.835 140.051 823.54 141.123L824.743 135.841ZM812.423 132.105C808.914 130.684 806.146 128.886 804.04 126.755L800.187 130.562C802.9 133.308 806.327 135.481 810.39 137.126L812.423 132.105ZM804.086 126.802C802.324 124.93 801.38 122.522 801.38 119.357H795.963C795.963 123.717 797.314 127.51 800.141 130.514L804.086 126.802ZM801.38 119.357C801.38 116.19 802.742 113.366 805.891 110.796L802.466 106.6C798.273 110.022 795.963 114.304 795.963 119.357H801.38ZM805.915 110.777C809.176 108.054 813.867 105.826 820.166 104.215L818.824 98.9676C812.044 100.701 806.524 103.211 802.443 106.619L805.915 110.777ZM820.155 104.218C826.545 102.613 834.002 101.792 842.556 101.792V96.375C833.671 96.375 825.754 97.2262 818.835 98.9648L820.155 104.218ZM842.556 101.792C850.196 101.792 857.598 102.474 864.768 103.834L865.777 98.5126C858.261 97.0863 850.52 96.375 842.556 96.375V101.792ZM864.768 103.834C871.979 105.203 878.291 106.972 883.721 109.125L885.718 104.09C879.904 101.785 873.251 99.9309 865.777 98.5126L864.768 103.834ZM882.62 104.897L874.187 115.243L878.386 118.665L886.819 108.319L882.62 104.897ZM963.895 102.001C972.655 102.001 980.754 102.921 988.205 104.745L989.493 99.4833C981.57 97.5445 973.033 96.5841 963.895 96.5841V102.001ZM988.214 104.747C995.803 106.577 1002.31 109.134 1007.77 112.384L1010.54 107.729C1004.53 104.152 997.498 101.413 989.484 99.4812L988.214 104.747ZM1007.79 112.396C1013.38 115.657 1017.6 119.385 1020.54 123.537L1024.96 120.403C1021.48 115.499 1016.63 111.284 1010.52 107.717L1007.79 112.396ZM1020.58 123.59C1023.58 127.613 1025.03 131.894 1025.03 136.496H1030.45C1030.45 130.648 1028.57 125.245 1024.92 120.35L1020.58 123.59ZM1025.03 136.496C1025.03 141.102 1023.58 145.466 1020.56 149.644L1024.95 152.819C1028.58 147.801 1030.45 142.342 1030.45 136.496H1025.03ZM1020.54 149.665C1017.6 153.817 1013.38 157.545 1007.79 160.806L1010.52 165.485C1016.63 161.918 1021.48 157.703 1024.96 152.799L1020.54 149.665ZM1007.77 160.818C1002.3 164.073 995.788 166.665 988.192 168.565L989.506 173.82C997.513 171.818 1004.54 169.046 1010.54 165.473L1007.77 160.818ZM988.205 168.562C980.754 170.385 972.655 171.306 963.895 171.306V176.722C973.033 176.722 981.57 175.762 989.493 173.823L988.205 168.562ZM963.895 171.306C955.136 171.306 946.976 170.385 939.404 168.559L938.134 173.825C946.166 175.762 954.757 176.722 963.895 176.722V171.306ZM939.435 168.567C931.953 166.668 925.426 164.073 919.827 160.806L917.097 165.485C923.2 169.045 930.212 171.815 938.103 173.817L939.435 168.567ZM919.847 160.818C914.365 157.555 910.125 153.815 907.049 149.628L902.684 152.835C906.262 157.706 911.086 161.908 917.077 165.473L919.847 160.818ZM907.087 149.681C904.167 145.502 902.756 141.125 902.756 136.496H897.34C897.34 142.318 899.141 147.765 902.646 152.783L907.087 149.681ZM902.756 136.496C902.756 131.869 904.166 127.534 907.076 123.433L902.658 120.299C899.142 125.255 897.34 130.674 897.34 136.496H902.756ZM907.049 123.469C910.121 119.289 914.353 115.587 919.826 112.396L917.098 107.717C911.099 111.214 906.267 115.385 902.684 120.262L907.049 123.469ZM919.827 112.396C925.419 109.133 931.938 106.574 939.413 104.745L938.125 99.4833C930.227 101.416 923.208 104.152 917.097 107.717L919.827 112.396ZM939.404 104.747C946.976 102.921 955.136 102.001 963.895 102.001V96.5841C954.757 96.5841 946.166 97.5446 938.134 99.4812L939.404 104.747ZM964.067 107.035C957.889 107.035 952.034 107.756 946.511 109.214L947.893 114.452C952.925 113.123 958.313 112.451 964.067 112.451V107.035ZM946.529 109.21C941.142 110.591 936.3 112.567 932.029 115.161L934.84 119.791C938.599 117.508 942.936 115.723 947.875 114.457L946.529 109.21ZM932.029 115.161C927.748 117.761 924.295 120.861 921.751 124.492L926.187 127.6C928.232 124.682 931.09 122.069 934.84 119.791L932.029 115.161ZM921.73 124.523C919.254 128.162 917.991 132.174 917.991 136.496H923.408C923.408 133.295 924.324 130.339 926.209 127.569L921.73 124.523ZM917.991 136.496C917.991 140.851 919.331 144.906 921.923 148.606L926.359 145.497C924.362 142.648 923.408 139.667 923.408 136.496H917.991ZM921.923 148.606C924.461 152.227 927.904 155.357 932.172 158.023L935.041 153.428C931.278 151.078 928.41 148.425 926.359 145.497L921.923 148.606ZM932.201 158.04C936.462 160.628 941.292 162.637 946.668 164.088L948.08 158.858C943.13 157.523 938.782 155.7 935.012 153.411L932.201 158.04ZM946.683 164.092C952.201 165.549 957.999 166.272 964.067 166.272V160.855C958.433 160.855 953.102 160.184 948.065 158.855L946.683 164.092ZM964.067 166.272C970.135 166.272 975.881 165.549 981.294 164.088L979.883 158.858C974.97 160.184 969.702 160.855 964.067 160.855V166.272ZM981.28 164.092C986.773 162.642 991.622 160.628 995.792 158.022L992.92 153.429C989.289 155.699 984.959 157.518 979.897 158.855L981.28 164.092ZM995.821 158.004C999.98 155.329 1003.31 152.188 1005.73 148.552L1001.22 145.551C999.283 148.464 996.534 151.105 992.891 153.447L995.821 158.004ZM1005.7 148.606C1008.29 144.906 1009.63 140.851 1009.63 136.496H1004.21C1004.21 139.667 1003.26 142.648 1001.26 145.497L1005.7 148.606ZM1009.63 136.496C1009.63 132.141 1008.29 128.111 1005.68 124.469L1001.28 127.622C1003.26 130.391 1004.21 133.328 1004.21 136.496H1009.63ZM1005.73 124.545C1003.31 120.9 999.964 117.788 995.792 115.18L992.92 119.773C996.55 122.042 999.289 124.642 1001.22 127.547L1005.73 124.545ZM995.792 115.18C991.612 112.567 986.751 110.586 981.247 109.206L979.93 114.46C984.981 115.727 989.299 117.509 992.92 119.773L995.792 115.18ZM981.294 109.218C975.881 107.757 970.135 107.035 964.067 107.035V112.451C969.702 112.451 974.97 113.122 979.883 114.448L981.294 109.218ZM1098.34 102.001C1107.1 102.001 1115.2 102.921 1122.65 104.745L1123.94 99.4833C1116.02 97.5445 1107.48 96.5841 1098.34 96.5841V102.001ZM1122.66 104.747C1130.25 106.577 1136.76 109.134 1142.22 112.384L1144.99 107.729C1138.98 104.152 1131.95 101.413 1123.93 99.4812L1122.66 104.747ZM1142.24 112.396C1147.83 115.657 1152.05 119.384 1154.99 123.537L1159.41 120.403C1155.93 115.499 1151.08 111.284 1144.97 107.717L1142.24 112.396ZM1155.03 123.59C1158.03 127.613 1159.48 131.894 1159.48 136.496H1164.9C1164.9 130.648 1163.02 125.245 1159.37 120.35L1155.03 123.59ZM1159.48 136.496C1159.48 141.102 1158.03 145.466 1155.01 149.644L1159.4 152.819C1163.03 147.801 1164.9 142.342 1164.9 136.496H1159.48ZM1154.99 149.665C1152.05 153.817 1147.83 157.545 1142.24 160.806L1144.97 165.485C1151.08 161.918 1155.93 157.703 1159.41 152.799L1154.99 149.665ZM1142.22 160.818C1136.75 164.073 1130.24 166.665 1122.64 168.565L1123.96 173.82C1131.96 171.818 1138.99 169.046 1144.99 165.473L1142.22 160.818ZM1122.65 168.562C1115.2 170.385 1107.1 171.306 1098.34 171.306V176.722C1107.48 176.722 1116.02 175.762 1123.94 173.823L1122.65 168.562ZM1098.34 171.306C1089.59 171.306 1081.42 170.385 1073.85 168.559L1072.58 173.825C1080.62 175.762 1089.21 176.722 1098.34 176.722V171.306ZM1073.88 168.567C1066.4 166.668 1059.88 164.073 1054.28 160.806L1051.55 165.485C1057.65 169.045 1064.66 171.815 1072.55 173.817L1073.88 168.567ZM1054.3 160.818C1048.81 157.555 1044.57 153.815 1041.5 149.628L1037.13 152.835C1040.71 157.706 1045.54 161.908 1051.53 165.473L1054.3 160.818ZM1041.54 149.681C1038.62 145.502 1037.21 141.125 1037.21 136.496H1031.79C1031.79 142.318 1033.59 147.765 1037.1 152.783L1041.54 149.681ZM1037.21 136.496C1037.21 131.869 1038.62 127.534 1041.52 123.433L1037.11 120.299C1033.59 125.255 1031.79 130.674 1031.79 136.496H1037.21ZM1041.5 123.469C1044.57 119.289 1048.8 115.587 1054.28 112.396L1051.55 107.717C1045.55 111.214 1040.72 115.385 1037.13 120.262L1041.5 123.469ZM1054.28 112.396C1059.87 109.133 1066.39 106.574 1073.86 104.745L1072.57 99.4833C1064.68 101.416 1057.66 104.152 1051.55 107.717L1054.28 112.396ZM1073.85 104.747C1081.42 102.921 1089.59 102.001 1098.34 102.001V96.5841C1089.21 96.5841 1080.62 97.5446 1072.58 99.4812L1073.85 104.747ZM1098.52 107.035C1092.34 107.035 1086.48 107.756 1080.96 109.214L1082.34 114.452C1087.37 113.123 1092.76 112.451 1098.52 112.451V107.035ZM1080.98 109.21C1075.59 110.591 1070.75 112.567 1066.48 115.161L1069.29 119.791C1073.05 117.508 1077.39 115.723 1082.32 114.457L1080.98 109.21ZM1066.48 115.161C1062.2 117.761 1058.74 120.861 1056.2 124.492L1060.64 127.6C1062.68 124.682 1065.54 122.069 1069.29 119.791L1066.48 115.161ZM1056.18 124.523C1053.7 128.162 1052.44 132.174 1052.44 136.496H1057.86C1057.86 133.295 1058.77 130.339 1060.66 127.569L1056.18 124.523ZM1052.44 136.496C1052.44 140.851 1053.78 144.906 1056.37 148.606L1060.81 145.497C1058.81 142.648 1057.86 139.667 1057.86 136.496H1052.44ZM1056.37 148.606C1058.91 152.227 1062.35 155.357 1066.62 158.023L1069.49 153.428C1065.73 151.078 1062.86 148.425 1060.81 145.497L1056.37 148.606ZM1066.65 158.04C1070.91 160.628 1075.74 162.637 1081.12 164.088L1082.53 158.858C1077.58 157.523 1073.23 155.7 1069.46 153.411L1066.65 158.04ZM1081.13 164.092C1086.65 165.549 1092.45 166.272 1098.52 166.272V160.855C1092.88 160.855 1087.55 160.184 1082.51 158.855L1081.13 164.092ZM1098.52 166.272C1104.58 166.272 1110.33 165.549 1115.74 164.088L1114.33 158.858C1109.42 160.184 1104.15 160.855 1098.52 160.855V166.272ZM1115.73 164.092C1121.22 162.642 1126.07 160.628 1130.24 158.022L1127.37 153.429C1123.74 155.699 1119.41 157.518 1114.35 158.855L1115.73 164.092ZM1130.27 158.004C1134.43 155.329 1137.76 152.188 1140.18 148.552L1135.67 145.551C1133.73 148.464 1130.98 151.105 1127.34 153.447L1130.27 158.004ZM1140.14 148.606C1142.74 144.906 1144.08 140.851 1144.08 136.496H1138.66C1138.66 139.667 1137.71 142.648 1135.71 145.497L1140.14 148.606ZM1144.08 136.496C1144.08 132.141 1142.74 128.11 1140.13 124.469L1135.72 127.622C1137.71 130.391 1138.66 133.328 1138.66 136.496H1144.08ZM1140.18 124.545C1137.75 120.9 1134.41 117.788 1130.24 115.18L1127.37 119.773C1131 122.042 1133.74 124.642 1135.67 127.547L1140.18 124.545ZM1130.24 115.18C1126.06 112.567 1121.2 110.586 1115.7 109.206L1114.38 114.46C1119.43 115.727 1123.75 117.509 1127.37 119.773L1130.24 115.18ZM1115.74 109.218C1110.33 107.757 1104.58 107.035 1098.52 107.035V112.451C1104.15 112.451 1109.42 113.122 1114.33 114.448L1115.74 109.218ZM1183.8 102.732H1203.76V97.3156H1183.8V102.732ZM1202.03 102.106L1271.73 160.106L1275.2 155.943L1205.5 97.9421L1202.03 102.106ZM1272.93 155.37L1267.76 156.415L1268.84 161.724L1274 160.679L1272.93 155.37ZM1271.01 159.07V100.024H1265.59V159.07H1271.01ZM1268.3 102.732H1288.26V97.3156H1268.3V102.732ZM1285.56 100.024V173.178H1290.97V100.024H1285.56ZM1288.26 170.47H1268.3V175.886H1288.26V170.47ZM1270.03 171.097L1200.51 113.201L1197.04 117.363L1266.57 175.259L1270.03 171.097ZM1199.29 117.94L1204.63 116.895L1203.59 111.579L1198.25 112.624L1199.29 117.94ZM1201.4 114.237V173.178H1206.82V114.237H1201.4ZM1204.11 170.47H1183.8V175.886H1204.11V170.47ZM1186.51 173.178V100.024H1181.09V173.178H1186.51Z" fill="#1F4E75" mask="url(#path-9-outside-1_652_2139)"/>
</svg>
