<svg width="414" height="138" viewBox="0 0 414 138" fill="none" xmlns="http://www.w3.org/2000/svg">
<path d="M412.5 69C412.5 106.555 320.495 137 207 137C93.5055 137 1.5 106.555 1.5 69C1.5 31.4446 93.5055 1 207 1C320.495 1 412.5 31.4446 412.5 69ZM11.364 69C11.364 104.753 98.9532 133.736 207 133.736C315.047 133.736 402.636 104.753 402.636 69C402.636 33.2473 315.047 4.264 207 4.264C98.9532 4.264 11.364 33.2473 11.364 69Z" fill="black" stroke="black" stroke-miterlimit="5.75877" stroke-linejoin="round"/>
<path d="M63.8993 77.484C63.8993 81.9067 62.6593 85.3373 60.1793 87.776C57.6993 90.1733 54.3099 91.372 50.0113 91.372C47.2833 91.372 44.7826 90.814 42.5093 89.698C40.2773 88.5407 38.3139 86.97 36.6193 84.986L40.5253 79.034C42.0133 80.6047 43.5633 81.8033 45.1753 82.63C46.7873 83.4567 48.3166 83.87 49.7633 83.87C51.5406 83.87 52.9459 83.312 53.9793 82.196C55.0126 81.0387 55.5293 79.406 55.5293 77.298V54.606H40.5873V47.6H63.8993V77.484ZM99.5982 47.104C102.864 47.104 105.902 47.662 108.712 48.778C111.523 49.894 113.962 51.4647 116.028 53.49C118.136 55.5153 119.769 57.8713 120.926 60.558C122.125 63.2033 122.724 66.0967 122.724 69.238C122.724 72.338 122.125 75.252 120.926 77.98C119.769 80.708 118.136 83.0847 116.028 85.11C113.962 87.1353 111.523 88.7267 108.712 89.884C105.902 91 102.864 91.558 99.5982 91.558C96.3329 91.558 93.2949 91 90.4842 89.884C87.7149 88.7267 85.2762 87.1353 83.1682 85.11C81.0602 83.0847 79.4069 80.7287 78.2082 78.042C77.0509 75.314 76.4722 72.3793 76.4722 69.238C76.4722 66.0967 77.0509 63.1827 78.2082 60.496C79.4069 57.8093 81.0602 55.474 83.1682 53.49C85.2762 51.4647 87.7149 49.894 90.4842 48.778C93.2949 47.662 96.3329 47.104 99.5982 47.104ZM99.7222 54.11C97.6969 54.11 95.7955 54.5027 94.0182 55.288C92.2409 56.032 90.6702 57.1067 89.3062 58.512C87.9422 59.876 86.8675 61.4673 86.0822 63.286C85.3382 65.1047 84.9662 67.0887 84.9662 69.238C84.9662 71.3873 85.3589 73.392 86.1442 75.252C86.9295 77.0707 88.0042 78.6827 89.3682 80.088C90.7322 81.4933 92.3029 82.5887 94.0802 83.374C95.8575 84.1593 97.7382 84.552 99.7222 84.552C101.706 84.552 103.566 84.1593 105.302 83.374C107.08 82.5887 108.63 81.4933 109.952 80.088C111.275 78.6827 112.308 77.0707 113.052 75.252C113.838 73.392 114.23 71.3873 114.23 69.238C114.23 67.0887 113.838 65.1047 113.052 63.286C112.308 61.4673 111.275 59.876 109.952 58.512C108.63 57.1067 107.08 56.032 105.302 55.288C103.566 54.5027 101.706 54.11 99.7222 54.11ZM143.717 73.144C143.717 76.6987 144.688 79.4887 146.631 81.514C148.574 83.5393 151.178 84.552 154.443 84.552C157.667 84.552 160.23 83.56 162.131 81.576C164.032 79.5507 164.983 76.74 164.983 73.144V47.6H173.291V73.144C173.291 76.9467 172.526 80.2327 170.997 83.002C169.509 85.73 167.339 87.838 164.487 89.326C161.676 90.814 158.328 91.558 154.443 91.558C150.516 91.558 147.127 90.814 144.275 89.326C141.423 87.838 139.232 85.73 137.703 83.002C136.174 80.2327 135.409 76.9467 135.409 73.144V47.6H143.717V73.144ZM207.382 47.6C213.004 47.6 217.344 48.902 220.402 51.506C223.461 54.11 224.99 57.768 224.99 62.48C224.99 67.3987 223.461 71.222 220.402 73.95C217.344 76.678 213.004 78.042 207.382 78.042H197.586V91H189.278V47.6H207.382ZM207.382 71.16C210.482 71.16 212.88 70.4573 214.574 69.052C216.269 67.6467 217.116 65.518 217.116 62.666C217.116 59.938 216.269 57.9127 214.574 56.59C212.88 55.226 210.482 54.544 207.382 54.544H197.586V71.16H207.382ZM207.072 74.88H215.194L225.858 91H216.434L207.072 74.88ZM240.283 47.6H248.157L272.709 80.956L270.539 81.7V47.6H278.599V91H270.663L246.235 57.706L248.405 56.962V91H240.283V47.6ZM309.167 47.6H317.661L336.447 91H327.581L313.135 55.97L298.751 91H290.071L309.167 47.6ZM300.053 74.756H325.907V81.514H300.053V74.756ZM347.984 47.6H356.292V83.932H375.016V91H347.984V47.6Z" fill="black"/>
<path d="M60.1793 87.776L60.5268 88.1355L60.5298 88.1325L60.1793 87.776ZM42.5093 89.698L42.2791 90.142L42.2889 90.1468L42.5093 89.698ZM36.6193 84.986L36.2012 84.7117C36.0793 84.8976 36.0947 85.1417 36.2391 85.3107L36.6193 84.986ZM40.5253 79.034L40.8882 78.6901C40.7832 78.5792 40.6331 78.5224 40.4809 78.536C40.3287 78.5495 40.1911 78.6319 40.1072 78.7597L40.5253 79.034ZM45.1753 82.63L45.4034 82.1851L45.1753 82.63ZM53.9793 82.196L54.3462 82.5358L54.3522 82.529L53.9793 82.196ZM55.5293 54.606H56.0293C56.0293 54.3299 55.8054 54.106 55.5293 54.106V54.606ZM40.5873 54.606H40.0873C40.0873 54.8821 40.3111 55.106 40.5873 55.106V54.606ZM40.5873 47.6V47.1C40.3111 47.1 40.0873 47.3239 40.0873 47.6H40.5873ZM63.8993 47.6H64.3993C64.3993 47.3239 64.1754 47.1 63.8993 47.1V47.6ZM63.3993 77.484C63.3993 81.8109 62.1889 85.0987 59.8287 87.4195L60.5298 88.1325C63.1297 85.576 64.3993 82.0024 64.3993 77.484H63.3993ZM59.8318 87.4165C57.4666 89.7028 54.2138 90.872 50.0113 90.872V91.872C54.406 91.872 57.9319 90.6439 60.5268 88.1355L59.8318 87.4165ZM50.0113 90.872C47.3536 90.872 44.9292 90.3289 42.7296 89.2492L42.2889 90.1468C44.636 91.299 47.2129 91.872 50.0113 91.872V90.872ZM42.7394 89.2541C40.5668 88.1276 38.6539 86.5981 36.9995 84.6613L36.2391 85.3107C37.974 87.3419 39.9877 88.9538 42.2791 90.1419L42.7394 89.2541ZM37.0373 85.2603L40.9433 79.3083L40.1072 78.7597L36.2012 84.7117L37.0373 85.2603ZM40.1623 79.3779C41.6818 80.9818 43.2761 82.218 44.9471 83.0749L45.4034 82.1851C43.8505 81.3887 42.3447 80.2275 40.8882 78.6901L40.1623 79.3779ZM44.9471 83.0749C46.6123 83.9288 48.2198 84.37 49.7633 84.37V83.37C48.4135 83.37 46.9622 82.9845 45.4034 82.1851L44.9471 83.0749ZM49.7633 84.37C51.6542 84.37 53.2021 83.7713 54.3461 82.5357L53.6124 81.8563C52.6898 82.8527 51.427 83.37 49.7633 83.37V84.37ZM54.3522 82.529C55.4928 81.2516 56.0293 79.4844 56.0293 77.298H55.0293C55.0293 79.3276 54.5324 80.8258 53.6063 81.863L54.3522 82.529ZM56.0293 77.298V54.606H55.0293V77.298H56.0293ZM55.5293 54.106H40.5873V55.106H55.5293V54.106ZM41.0873 54.606V47.6H40.0873V54.606H41.0873ZM40.5873 48.1H63.8993V47.1H40.5873V48.1ZM63.3993 47.6V77.484H64.3993V47.6H63.3993ZM108.712 48.778L108.897 48.3133L108.712 48.778ZM116.028 53.49L115.678 53.8471L115.682 53.8506L116.028 53.49ZM120.926 60.558L120.467 60.7558L120.471 60.7644L120.926 60.558ZM120.926 77.98L120.468 77.7788L120.466 77.7847L120.926 77.98ZM116.028 85.11L115.682 84.7494L115.678 84.7529L116.028 85.11ZM108.712 89.884L108.897 90.3487L108.903 90.3463L108.712 89.884ZM90.4842 89.884L90.2914 90.3454L90.2997 90.3487L90.4842 89.884ZM83.1682 85.11L83.5146 84.7494L83.1682 85.11ZM78.2082 78.042L77.7478 78.2373L77.7516 78.2457L78.2082 78.042ZM78.2082 60.496L77.7515 60.2923L77.749 60.2982L78.2082 60.496ZM83.1682 53.49L83.5109 53.8541L83.5146 53.8506L83.1682 53.49ZM90.4842 48.778L90.2997 48.3133L90.2973 48.3142L90.4842 48.778ZM94.0182 55.288L94.2113 55.7493L94.2203 55.7453L94.0182 55.288ZM89.3062 58.512L89.6598 58.8656L89.665 58.8602L89.3062 58.512ZM86.0822 63.286L85.6231 63.0877L85.6194 63.0967L86.0822 63.286ZM86.1442 75.252L85.6836 75.4465L85.6852 75.4502L86.1442 75.252ZM89.3682 80.088L89.0094 80.4362L89.3682 80.088ZM94.0802 83.374L94.2823 82.9167L94.0802 83.374ZM105.302 83.374L105.1 82.9166L105.096 82.9184L105.302 83.374ZM109.952 80.088L109.588 79.7453L109.952 80.088ZM113.052 75.252L112.592 75.0575L112.589 75.0627L113.052 75.252ZM113.052 63.286L112.589 63.4753L112.593 63.4842L113.052 63.286ZM109.952 58.512L109.588 58.8547L109.593 58.8601L109.952 58.512ZM105.302 55.288L105.096 55.7436C105.1 55.7455 105.105 55.7474 105.109 55.7492L105.302 55.288ZM99.5982 47.604C102.805 47.604 105.78 48.1518 108.528 49.2427L108.897 48.3133C106.023 47.1722 102.922 46.604 99.5982 46.604V47.604ZM108.528 49.2427C111.279 50.3353 113.661 51.8704 115.678 53.8471L116.378 53.1329C114.262 51.059 111.766 49.4527 108.897 48.3133L108.528 49.2427ZM115.682 53.8506C117.742 55.8297 119.336 58.1303 120.467 60.7558L121.385 60.3602C120.202 57.6123 118.531 55.201 116.375 53.1294L115.682 53.8506ZM120.471 60.7644C121.638 63.3397 122.224 66.162 122.224 69.238H123.224C123.224 66.0314 122.612 63.067 121.382 60.3516L120.471 60.7644ZM122.224 69.238C122.224 72.2716 121.638 75.1168 120.468 77.7789L121.384 78.1811C122.612 75.3872 123.224 72.4044 123.224 69.238H122.224ZM120.466 77.7847C119.335 80.4514 117.74 82.7716 115.682 84.7494L116.375 85.4706C118.532 83.3977 120.203 80.9646 121.386 78.1753L120.466 77.7847ZM115.678 84.7529C113.66 86.731 111.276 88.2876 108.522 89.4217L108.903 90.3463C111.77 89.1658 114.263 87.5397 116.378 85.4671L115.678 84.7529ZM108.528 89.4193C105.78 90.5102 102.805 91.058 99.5982 91.058V92.058C102.922 92.058 106.023 91.4898 108.897 90.3487L108.528 89.4193ZM99.5982 91.058C96.391 91.058 93.4161 90.5102 90.6687 89.4193L90.2997 90.3487C93.1736 91.4898 96.2747 92.058 99.5982 92.058V91.058ZM90.677 89.4227C87.9631 88.2885 85.5769 86.7308 83.5146 84.7494L82.8218 85.4706C84.9755 87.5398 87.4666 89.1648 90.2914 90.3453L90.677 89.4227ZM83.5146 84.7494C81.4534 82.7691 79.8374 80.4664 78.6648 77.8383L77.7516 78.2457C78.9763 80.9909 80.667 83.4002 82.8218 85.4706L83.5146 84.7494ZM78.6685 77.8467C77.5389 75.1842 76.9722 72.3163 76.9722 69.238H75.9722C75.9722 72.4423 76.5628 75.4438 77.7479 78.2373L78.6685 77.8467ZM76.9722 69.238C76.9722 66.1596 77.5389 63.3135 78.6674 60.6938L77.749 60.2982C76.5628 63.0518 75.9722 66.0337 75.9722 69.238H76.9722ZM78.6648 60.6997C79.8369 58.0725 81.4519 55.792 83.5109 53.8541L82.8255 53.1259C80.6685 55.156 78.9768 57.5461 77.7516 60.2923L78.6648 60.6997ZM83.5146 53.8506C85.5755 51.8705 87.9597 50.3344 90.6711 49.2418L90.2973 48.3142C87.47 49.4536 84.9769 51.0589 82.8218 53.1294L83.5146 53.8506ZM90.6687 49.2427C93.4161 48.1518 96.391 47.604 99.5982 47.604V46.604C96.2747 46.604 93.1736 47.1722 90.2997 48.3133L90.6687 49.2427ZM99.7222 53.61C97.6303 53.61 95.6598 54.016 93.8161 54.8307L94.2203 55.7453C95.9313 54.9893 97.7634 54.61 99.7222 54.61V53.61ZM93.8251 54.8268C91.9844 55.5973 90.3577 56.7108 88.9474 58.1638L89.665 58.8602C90.9827 57.5026 92.4973 56.4667 94.2113 55.7492L93.8251 54.8268ZM88.9526 58.1584C87.5428 59.5683 86.4328 61.2127 85.6232 63.0878L86.5412 63.4842C87.3022 61.7219 88.3416 60.1837 89.6597 58.8656L88.9526 58.1584ZM85.6194 63.0967C84.8486 64.9809 84.4662 67.0299 84.4662 69.238H85.4662C85.4662 67.1475 85.8278 65.2285 86.545 63.4753L85.6194 63.0967ZM84.4662 69.238C84.4662 71.4498 84.8706 73.521 85.6836 75.4465L86.6048 75.0575C85.8471 73.263 85.4662 71.3249 85.4662 69.238H84.4662ZM85.6852 75.4502C86.4943 77.3239 87.6027 78.9869 89.0094 80.4362L89.727 79.7398C88.4057 78.3785 87.3648 76.8174 86.6032 75.0538L85.6852 75.4502ZM89.0094 80.4362C90.4178 81.8873 92.0415 83.0198 93.8781 83.8313L94.2823 82.9167C92.5642 82.1575 91.0466 81.0994 89.727 79.7398L89.0094 80.4362ZM93.8781 83.8313C95.7205 84.6454 97.6701 85.052 99.7222 85.052V84.052C97.8063 84.052 95.9946 83.6733 94.2823 82.9167L93.8781 83.8313ZM99.7222 85.052C101.774 85.052 103.705 84.6454 105.508 83.8296L105.096 82.9184C103.428 83.6733 101.638 84.052 99.7222 84.052V85.052ZM105.504 83.8313C107.342 83.0192 108.948 81.885 110.316 80.4307L109.588 79.7453C108.312 81.1016 106.817 82.1581 105.1 82.9167L105.504 83.8313ZM110.316 80.4307C111.682 78.9799 112.748 77.3157 113.515 75.4413L112.589 75.0627C111.868 76.8257 110.868 78.3854 109.588 79.7453L110.316 80.4307ZM113.513 75.4465C114.326 73.521 114.73 71.4498 114.73 69.238H113.73C113.73 71.3249 113.349 73.263 112.592 75.0575L113.513 75.4465ZM114.73 69.238C114.73 67.0263 114.326 64.9742 113.511 63.0878L112.593 63.4842C113.349 65.2351 113.73 67.151 113.73 69.238H114.73ZM113.515 63.0967C112.748 61.221 111.68 59.5753 110.311 58.1639L109.593 58.8601C110.87 60.1767 111.869 61.7136 112.589 63.4753L113.515 63.0967ZM110.316 58.1693C108.946 56.713 107.337 55.5979 105.495 54.8268L105.109 55.7492C106.822 56.4661 108.313 57.5003 109.588 58.8547L110.316 58.1693ZM105.508 54.8324C103.705 54.0166 101.774 53.61 99.7222 53.61V54.61C101.638 54.61 103.428 54.9887 105.096 55.7436L105.508 54.8324ZM146.631 81.514L146.27 81.8601L146.631 81.514ZM162.131 81.576L162.492 81.922L162.496 81.9182L162.131 81.576ZM164.983 47.6V47.1C164.707 47.1 164.483 47.3239 164.483 47.6H164.983ZM173.291 47.6H173.791C173.791 47.3239 173.567 47.1 173.291 47.1V47.6ZM170.997 83.002L170.559 82.7603L170.558 82.7626L170.997 83.002ZM164.487 89.326L164.256 88.8827L164.253 88.8841L164.487 89.326ZM144.275 89.326L144.044 89.7693L144.275 89.326ZM137.703 83.002L137.265 83.2437L137.267 83.2465L137.703 83.002ZM135.409 47.6V47.1C135.133 47.1 134.909 47.3239 134.909 47.6H135.409ZM143.717 47.6H144.217C144.217 47.3239 143.993 47.1 143.717 47.1V47.6ZM143.217 73.144C143.217 76.7917 144.216 79.7186 146.27 81.8601L146.992 81.1679C145.161 79.2587 144.217 76.6056 144.217 73.144H143.217ZM146.27 81.8601C148.323 84 151.066 85.052 154.443 85.052V84.052C151.29 84.052 148.825 83.0787 146.992 81.1679L146.27 81.8601ZM154.443 85.052C157.778 85.052 160.48 84.0214 162.492 81.922L161.77 81.23C159.979 83.0986 157.556 84.052 154.443 84.052V85.052ZM162.496 81.9182C164.507 79.7754 165.483 76.8284 165.483 73.144H164.483C164.483 76.6516 163.557 79.326 161.766 81.2338L162.496 81.9182ZM165.483 73.144V47.6H164.483V73.144H165.483ZM164.983 48.1H173.291V47.1H164.983V48.1ZM172.791 47.6V73.144H173.791V47.6H172.791ZM172.791 73.144C172.791 76.8791 172.04 80.0786 170.559 82.7603L171.435 83.2437C173.012 80.3868 173.791 77.0142 173.791 73.144H172.791ZM170.558 82.7626C169.119 85.4003 167.023 87.4389 164.256 88.8827L164.718 89.7693C167.655 88.2371 169.899 86.0597 171.436 83.2414L170.558 82.7626ZM164.253 88.8841C161.529 90.3264 158.265 91.058 154.443 91.058V92.058C158.392 92.058 161.824 91.3016 164.721 89.7679L164.253 88.8841ZM154.443 91.058C150.579 91.058 147.273 90.3261 144.506 88.8827L144.044 89.7693C146.981 91.3019 150.453 92.058 154.443 92.058V91.058ZM144.506 88.8827C141.738 87.4383 139.62 85.3982 138.139 82.7575L137.267 83.2465C138.845 86.0618 141.108 88.2377 144.044 89.7693L144.506 88.8827ZM138.141 82.7603C136.66 80.0786 135.909 76.8791 135.909 73.144H134.909C134.909 77.0142 135.688 80.3868 137.265 83.2437L138.141 82.7603ZM135.909 73.144V47.6H134.909V73.144H135.909ZM135.409 48.1H143.717V47.1H135.409V48.1ZM143.217 47.6V73.144H144.217V47.6H143.217ZM220.402 51.506L220.078 51.8867L220.402 51.506ZM220.402 73.95L220.069 73.5769L220.402 73.95ZM197.586 78.042V77.542C197.31 77.542 197.086 77.7659 197.086 78.042H197.586ZM197.586 91V91.5C197.862 91.5 198.086 91.2761 198.086 91H197.586ZM189.278 91H188.778C188.778 91.2761 189.002 91.5 189.278 91.5V91ZM189.278 47.6V47.1C189.002 47.1 188.778 47.3239 188.778 47.6H189.278ZM214.574 69.052L214.893 69.4369L214.574 69.052ZM214.574 56.59L214.261 56.9795L214.267 56.9842L214.574 56.59ZM197.586 54.544V54.044C197.31 54.044 197.086 54.2679 197.086 54.544H197.586ZM197.586 71.16H197.086C197.086 71.4361 197.31 71.66 197.586 71.66V71.16ZM207.072 74.88V74.38C206.893 74.38 206.728 74.4755 206.639 74.6306C206.55 74.7856 206.55 74.9764 206.64 75.1311L207.072 74.88ZM215.194 74.88L215.611 74.6041C215.519 74.4642 215.362 74.38 215.194 74.38V74.88ZM225.858 91V91.5C226.042 91.5 226.212 91.3989 226.299 91.2367C226.386 91.0746 226.377 90.8777 226.275 90.7241L225.858 91ZM216.434 91L216.002 91.2511C216.091 91.4052 216.256 91.5 216.434 91.5V91ZM207.382 48.1C212.932 48.1 217.14 49.3855 220.078 51.8867L220.726 51.1253C217.547 48.4185 213.075 47.1 207.382 47.1V48.1ZM220.078 51.8867C223.006 54.3789 224.49 57.8865 224.49 62.48H225.49C225.49 57.6495 223.916 53.8411 220.726 51.1253L220.078 51.8867ZM224.49 62.48C224.49 67.2872 223.001 70.9626 220.069 73.5769L220.735 74.3231C223.921 71.4814 225.49 67.5101 225.49 62.48H224.49ZM220.069 73.5769C217.132 76.1971 212.927 77.542 207.382 77.542V78.542C213.081 78.542 217.556 77.1589 220.735 74.3231L220.069 73.5769ZM207.382 77.542H197.586V78.542H207.382V77.542ZM197.086 78.042V91H198.086V78.042H197.086ZM197.586 90.5H189.278V91.5H197.586V90.5ZM189.778 91V47.6H188.778V91H189.778ZM189.278 48.1H207.382V47.1H189.278V48.1ZM207.382 71.66C210.552 71.66 213.079 70.9419 214.893 69.4369L214.255 68.6671C212.681 69.9728 210.413 70.66 207.382 70.66V71.66ZM214.893 69.4369C216.735 67.91 217.616 65.6195 217.616 62.666H216.616C216.616 65.4165 215.803 67.3833 214.255 68.6671L214.893 69.4369ZM217.616 62.666C217.616 59.8294 216.73 57.6381 214.882 56.1958L214.267 56.9842C215.808 58.1873 216.616 60.0466 216.616 62.666H217.616ZM214.888 56.2005C213.073 54.7401 210.549 54.044 207.382 54.044V55.044C210.416 55.044 212.686 55.7119 214.261 56.9795L214.888 56.2005ZM207.382 54.044H197.586V55.044H207.382V54.044ZM197.086 54.544V71.16H198.086V54.544H197.086ZM197.586 71.66H207.382V70.66H197.586V71.66ZM207.072 75.38H215.194V74.38H207.072V75.38ZM214.777 75.1559L225.441 91.2759L226.275 90.7241L215.611 74.6041L214.777 75.1559ZM225.858 90.5H216.434V91.5H225.858V90.5ZM216.867 90.7489L207.505 74.6289L206.64 75.1311L216.002 91.2511L216.867 90.7489ZM240.283 47.6V47.1C240.007 47.1 239.783 47.3239 239.783 47.6H240.283ZM248.157 47.6L248.56 47.3036C248.465 47.1756 248.316 47.1 248.157 47.1V47.6ZM272.709 80.956L272.871 81.429C273.022 81.3773 273.139 81.2571 273.186 81.1052C273.234 80.9533 273.206 80.7878 273.112 80.6596L272.709 80.956ZM270.539 81.7H270.039C270.039 81.8615 270.117 82.013 270.248 82.1069C270.38 82.2007 270.548 82.2253 270.701 82.173L270.539 81.7ZM270.539 47.6V47.1C270.263 47.1 270.039 47.3239 270.039 47.6H270.539ZM278.599 47.6H279.099C279.099 47.3239 278.875 47.1 278.599 47.1V47.6ZM278.599 91V91.5C278.875 91.5 279.099 91.2761 279.099 91H278.599ZM270.663 91L270.26 91.2958C270.354 91.4242 270.504 91.5 270.663 91.5V91ZM246.235 57.706L246.073 57.233C245.922 57.2846 245.805 57.4047 245.758 57.5564C245.71 57.7082 245.738 57.8736 245.832 58.0018L246.235 57.706ZM248.405 56.962H248.905C248.905 56.8005 248.827 56.649 248.696 56.5551C248.564 56.4613 248.396 56.4367 248.243 56.489L248.405 56.962ZM248.405 91V91.5C248.681 91.5 248.905 91.2761 248.905 91H248.405ZM240.283 91H239.783C239.783 91.2761 240.007 91.5 240.283 91.5V91ZM240.283 48.1H248.157V47.1H240.283V48.1ZM247.754 47.8964L272.306 81.2524L273.112 80.6596L248.56 47.3036L247.754 47.8964ZM272.547 80.483L270.377 81.227L270.701 82.173L272.871 81.429L272.547 80.483ZM271.039 81.7V47.6H270.039V81.7H271.039ZM270.539 48.1H278.599V47.1H270.539V48.1ZM278.099 47.6V91H279.099V47.6H278.099ZM278.599 90.5H270.663V91.5H278.599V90.5ZM271.066 90.7042L246.638 57.4102L245.832 58.0018L270.26 91.2958L271.066 90.7042ZM246.397 58.179L248.567 57.435L248.243 56.489L246.073 57.233L246.397 58.179ZM247.905 56.962V91H248.905V56.962H247.905ZM248.405 90.5H240.283V91.5H248.405V90.5ZM240.783 91V47.6H239.783V91H240.783ZM309.167 47.6V47.1C308.969 47.1 308.79 47.2171 308.71 47.3986L309.167 47.6ZM317.661 47.6L318.12 47.4014C318.041 47.2184 317.861 47.1 317.661 47.1V47.6ZM336.447 91V91.5C336.616 91.5 336.773 91.4152 336.865 91.2745C336.958 91.1337 336.973 90.9559 336.906 90.8014L336.447 91ZM327.581 91L327.119 91.1906C327.196 91.3778 327.379 91.5 327.581 91.5V91ZM313.135 55.97L313.598 55.7794C313.52 55.592 313.338 55.4698 313.135 55.47C312.932 55.4702 312.75 55.5926 312.673 55.7801L313.135 55.97ZM298.751 91V91.5C298.954 91.5 299.137 91.3775 299.214 91.1899L298.751 91ZM290.071 91L289.614 90.7986C289.546 90.9533 289.56 91.1318 289.653 91.2732C289.745 91.4147 289.902 91.5 290.071 91.5V91ZM300.053 74.756V74.256C299.777 74.256 299.553 74.4799 299.553 74.756H300.053ZM325.907 74.756H326.407C326.407 74.4799 326.184 74.256 325.907 74.256V74.756ZM325.907 81.514V82.014C326.184 82.014 326.407 81.7901 326.407 81.514H325.907ZM300.053 81.514H299.553C299.553 81.7901 299.777 82.014 300.053 82.014V81.514ZM309.167 48.1H317.661V47.1H309.167V48.1ZM317.203 47.7986L335.989 91.1986L336.906 90.8014L318.12 47.4014L317.203 47.7986ZM336.447 90.5H327.581V91.5H336.447V90.5ZM328.044 90.8094L313.598 55.7794L312.673 56.1606L327.119 91.1906L328.044 90.8094ZM312.673 55.7801L298.289 90.8101L299.214 91.1899L313.598 56.1599L312.673 55.7801ZM298.751 90.5H290.071V91.5H298.751V90.5ZM290.529 91.2014L309.625 47.8014L308.71 47.3986L289.614 90.7986L290.529 91.2014ZM300.053 75.256H325.907V74.256H300.053V75.256ZM325.407 74.756V81.514H326.407V74.756H325.407ZM325.907 81.014H300.053V82.014H325.907V81.014ZM300.553 81.514V74.756H299.553V81.514H300.553ZM347.984 47.6V47.1C347.708 47.1 347.484 47.3239 347.484 47.6H347.984ZM356.292 47.6H356.792C356.792 47.3239 356.568 47.1 356.292 47.1V47.6ZM356.292 83.932H355.792C355.792 84.2081 356.016 84.432 356.292 84.432V83.932ZM375.016 83.932H375.516C375.516 83.6559 375.292 83.432 375.016 83.432V83.932ZM375.016 91V91.5C375.292 91.5 375.516 91.2761 375.516 91H375.016ZM347.984 91H347.484C347.484 91.2761 347.708 91.5 347.984 91.5V91ZM347.984 48.1H356.292V47.1H347.984V48.1ZM355.792 47.6V83.932H356.792V47.6H355.792ZM356.292 84.432H375.016V83.432H356.292V84.432ZM374.516 83.932V91H375.516V83.932H374.516ZM375.016 90.5H347.984V91.5H375.016V90.5ZM348.484 91V47.6H347.484V91H348.484Z" fill="black"/>
</svg>
