<svg width="372" height="268" viewBox="0 0 372 268" fill="none" xmlns="http://www.w3.org/2000/svg">
<path d="M78.1882 233.729C25.1444 202.542 11.574 146.881 15.287 124.288C20.7535 76.5934 78.3673 35.4058 138.073 32.4538C175.083 30.624 176.14 17.8212 176.01 14.3941C175.7 6.16893 162.095 -12.0867 94.5507 13.6267C83.9673 17.1829 56.5379 30.3619 31.4762 54.6281C0.149063 84.961 -27.9 155.625 53.0442 223.105C98.4229 260.936 182.555 270.056 211.24 266.957C188.41 267.203 123.655 262.86 78.1882 233.729Z" fill="white"/>
<path d="M363.246 91.0876C352.145 69.6661 329.817 50.7133 318.253 46.3203C346.426 68.3732 352.805 86.4096 354.626 103.011C356.938 124.139 350.842 145.267 338.857 163.258C326.873 181.249 297.017 212 236.465 227.271C188.024 239.488 143.813 225.668 128.187 217.439C138.91 226.225 166.873 234.174 187.898 237.103C209.146 240.061 238.148 240.241 271.157 232.082C304.166 223.924 343.062 200.285 358.41 173.299C373.759 146.313 377.123 117.864 363.246 91.0876Z" fill="white"/>
<path d="M90.2444 111.061C124.725 63.7845 200.885 77.2078 225.956 87.3911C236.258 91.575 250.505 99.0433 258.023 107.087C265.845 115.454 276.105 128.843 274.423 151.436C276.933 128.516 277.619 114.569 260.744 95.6162C254.231 88.2945 246.201 81.5651 230.477 74.6622C216.311 68.4444 183.591 58.3455 140.069 71.734C120.211 77.8425 95.7555 96.3016 90.2444 111.061Z" fill="white"/>
<path d="M287.55 112.82C287.296 112.582 286.959 112.45 286.609 112.45H266.42C265.155 112.45 264.558 114.004 265.501 114.843L302.531 147.78L313.682 137.172L287.55 112.82Z" fill="white"/>
<path d="M302.758 147.983C303.051 148.242 303.218 148.614 303.218 149.005V169.795C303.218 170.551 303.834 171.166 304.596 171.166H322.12C322.881 171.166 323.498 170.551 323.498 169.795V149.004C323.498 148.615 323.663 148.245 323.953 147.985L324.467 147.525L313.682 137.171L302.531 147.78L302.758 147.983Z" fill="white"/>
<path d="M360.913 114.838C361.851 113.997 361.253 112.45 359.991 112.45H340.4C340.047 112.45 339.707 112.584 339.451 112.826L313.682 137.172L324.467 147.525L360.913 114.838Z" fill="white"/>
<path d="M117.77 160.729V122.916H97.4964V160.729H117.77Z" fill="white"/>
<path d="M97.4964 169.795C97.4964 170.552 98.1136 171.166 98.8742 171.166H141.2C141.215 171.166 141.211 171.166 141.226 171.166C141.696 171.18 186.808 172.443 186.92 141.821C187.033 111.195 141.685 112.436 141.226 112.45C141.211 112.45 141.215 112.45 141.201 112.45H98.8742C98.1136 112.45 97.4964 113.063 97.4964 113.821V122.916H117.77H132.956C144.322 122.916 166.923 122.411 166.923 141.884C166.923 161.357 143.289 160.729 132.956 160.729H117.77H97.4964V169.795Z" fill="white"/>
<path d="M210.407 160.699V122.885H190.133V160.699H210.407Z" fill="white"/>
<path d="M190.133 169.765C190.133 170.522 190.75 171.136 191.511 171.136H233.837C233.852 171.136 233.848 171.135 233.863 171.136C234.333 171.149 279.444 172.413 279.557 141.791C279.67 111.164 234.322 112.406 233.863 112.419C233.848 112.42 233.852 112.42 233.838 112.42L191.511 112.419C190.75 112.419 190.133 113.033 190.133 113.79V122.885H210.407H225.592C236.959 122.885 259.56 122.38 259.56 141.853C259.56 161.327 235.926 160.699 225.592 160.699H210.407H190.133V169.765Z" fill="white"/>
<path d="M93.4464 171.168H19.6656C18.9047 171.168 18.2879 170.554 18.2879 169.797V160.26V146.196V135.883V123.386V113.789C18.2879 113.031 18.905 112.418 19.6662 112.418L92.5033 112.449C93.2638 112.449 93.8804 113.062 93.8804 113.82V122.015C93.8804 122.773 93.2638 123.386 92.5026 123.386H38.4035V135.883H88.4209C89.1815 135.883 89.7987 136.497 89.7987 137.254V144.825C89.7987 145.581 89.1815 146.196 88.4209 146.196H38.4078V160.26H93.4464C94.2076 160.26 94.8242 160.874 94.8242 161.631V169.797C94.8242 170.554 94.2076 171.168 93.4464 171.168Z" fill="white"/>
<mask id="path-12-outside-1_47_49" maskUnits="userSpaceOnUse" x="118.782" y="190.465" width="134" height="13" fill="black">
<rect fill="white" x="118.782" y="190.465" width="134" height="13"/>
<path d="M119.882 202.29C119.827 202.29 119.782 202.246 119.782 202.19V191.711C119.782 191.656 119.827 191.611 119.882 191.611H121.493C121.548 191.611 121.593 191.656 121.593 191.711V200.803C121.593 200.859 121.638 200.903 121.693 200.903H126.931C126.986 200.903 127.031 200.948 127.031 201.003V202.19C127.031 202.246 126.986 202.29 126.931 202.29H119.882Z"/>
<path d="M131.177 202.29C131.121 202.29 131.077 202.246 131.077 202.19V191.711C131.077 191.656 131.121 191.611 131.177 191.611H138.501C138.556 191.611 138.601 191.656 138.601 191.711V192.898C138.601 192.953 138.556 192.998 138.501 192.998H132.987C132.932 192.998 132.887 193.043 132.887 193.098V196.152C132.887 196.207 132.932 196.252 132.987 196.252H138.108C138.163 196.252 138.208 196.297 138.208 196.352V197.534C138.208 197.589 138.163 197.634 138.108 197.634H132.987C132.932 197.634 132.887 197.679 132.887 197.734V200.803C132.887 200.859 132.932 200.903 132.987 200.903H138.571C138.626 200.903 138.671 200.948 138.671 201.003V202.19C138.671 202.246 138.626 202.29 138.571 202.29H131.177Z"/>
<path d="M142.508 192.998C142.452 192.998 142.408 192.953 142.408 192.898V191.711C142.408 191.656 142.452 191.611 142.508 191.611H151.595C151.651 191.611 151.695 191.656 151.695 191.711V192.898C151.695 192.953 151.651 192.998 151.595 192.998H148.051C147.996 192.998 147.951 193.043 147.951 193.098V202.19C147.951 202.246 147.906 202.29 147.851 202.29H146.246C146.191 202.29 146.146 202.246 146.146 202.19V193.098C146.146 193.043 146.101 192.998 146.046 192.998H142.508Z"/>
<path d="M156.993 191.611C157.048 191.611 157.093 191.656 157.093 191.711V192.612C157.093 192.908 157.031 193.219 156.906 193.545C156.785 193.869 156.613 194.18 156.39 194.479C156.181 194.76 155.937 195.004 155.659 195.211C155.627 195.235 155.582 195.236 155.548 195.214L154.83 194.757C154.78 194.725 154.768 194.658 154.803 194.611C155.006 194.337 155.183 194.048 155.335 193.744C155.507 193.406 155.593 193.034 155.593 192.628V191.711C155.593 191.656 155.638 191.611 155.693 191.611H156.993Z"/>
<path d="M167.629 194.416C167.578 194.416 167.536 194.379 167.527 194.329C167.447 193.877 167.193 193.524 166.767 193.269C166.314 192.994 165.744 192.857 165.056 192.857C164.564 192.857 164.138 192.927 163.779 193.066C163.419 193.201 163.14 193.389 162.941 193.629C162.745 193.865 162.648 194.135 162.648 194.437C162.648 194.691 162.714 194.91 162.847 195.094C162.984 195.278 163.161 195.433 163.38 195.558C163.603 195.68 163.841 195.783 164.095 195.866C164.349 195.946 164.593 196.012 164.828 196.064L165.999 196.335C166.382 196.419 166.775 196.532 167.177 196.674C167.58 196.817 167.953 197.005 168.297 197.237C168.64 197.47 168.918 197.759 169.129 198.103C169.343 198.447 169.451 198.859 169.451 199.339C169.451 199.944 169.275 200.481 168.924 200.95C168.576 201.42 168.07 201.79 167.406 202.061C166.746 202.332 165.947 202.468 165.009 202.468C164.111 202.468 163.333 202.341 162.677 202.087C162.021 201.833 161.507 201.473 161.136 201.008C160.785 200.564 160.583 200.043 160.529 199.445C160.523 199.388 160.569 199.339 160.627 199.339H162.246C162.298 199.339 162.34 199.378 162.348 199.43C162.395 199.776 162.532 200.067 162.759 200.304C163.009 200.557 163.327 200.747 163.714 200.872C164.105 200.994 164.533 201.055 164.997 201.055C165.509 201.055 165.964 200.983 166.363 200.841C166.765 200.695 167.082 200.493 167.312 200.236C167.543 199.975 167.658 199.671 167.658 199.323C167.658 199.007 167.556 198.748 167.353 198.546C167.154 198.345 166.882 198.178 166.539 198.046C166.199 197.914 165.814 197.797 165.384 197.696L163.966 197.352C163.005 197.119 162.243 196.777 161.681 196.325C161.122 195.873 160.843 195.275 160.843 194.531C160.843 193.916 161.03 193.379 161.405 192.92C161.78 192.461 162.288 192.105 162.929 191.851C163.57 191.593 164.292 191.465 165.097 191.465C165.91 191.465 166.626 191.592 167.248 191.846C167.873 192.099 168.365 192.449 168.724 192.894C169.062 193.309 169.248 193.782 169.282 194.314C169.286 194.37 169.24 194.416 169.184 194.416H167.629Z"/>
<path d="M180.042 202.29C179.987 202.29 179.942 202.246 179.942 202.19V191.711C179.942 191.656 179.987 191.611 180.042 191.611H184.219C185.153 191.611 185.927 191.762 186.54 192.065C187.153 192.367 187.612 192.781 187.917 193.306C188.222 193.827 188.374 194.415 188.374 195.068C188.374 195.725 188.22 196.316 187.911 196.841C187.606 197.363 187.145 197.776 186.528 198.082C185.915 198.385 185.143 198.536 184.214 198.536H181.372C181.317 198.536 181.272 198.491 181.272 198.436V197.27C181.272 197.214 181.317 197.17 181.372 197.17H184.05C184.639 197.17 185.118 197.079 185.485 196.899C185.852 196.714 186.122 196.464 186.294 196.148C186.466 195.831 186.552 195.471 186.552 195.068C186.552 194.665 186.466 194.307 186.294 193.994C186.122 193.681 185.85 193.436 185.479 193.259C185.112 193.081 184.628 192.993 184.026 192.993H181.853C181.797 192.993 181.753 193.038 181.753 193.093V202.19C181.753 202.246 181.708 202.29 181.653 202.29H180.042Z"/>
<path d="M192.242 202.227C192.227 202.265 192.19 202.29 192.149 202.29H190.444C190.373 202.29 190.325 202.219 190.351 202.153L194.589 191.673C194.604 191.636 194.641 191.611 194.682 191.611H196.639C196.68 191.611 196.716 191.636 196.731 191.673L200.969 202.153C200.996 202.219 200.947 202.29 200.877 202.29H199.171C199.13 202.29 199.093 202.265 199.078 202.227L195.727 193.594C195.717 193.568 195.691 193.551 195.663 193.551C195.635 193.551 195.61 193.568 195.599 193.594L192.242 202.227ZM192.54 198.208C192.54 198.153 192.585 198.108 192.64 198.108H198.675C198.73 198.108 198.775 198.153 198.775 198.208V199.364C198.775 199.419 198.73 199.464 198.675 199.464H192.64C192.585 199.464 192.54 199.419 192.54 199.364V198.208Z"/>
<path d="M208.623 202.29H204.838C204.783 202.29 204.738 202.246 204.738 202.19V191.711C204.738 191.656 204.783 191.611 204.838 191.611H208.746C209.922 191.611 210.932 191.825 211.776 192.252C212.619 192.676 213.266 193.286 213.715 194.083C214.168 194.875 214.395 195.826 214.395 196.935C214.395 198.047 214.166 199.003 213.709 199.803C213.256 200.603 212.6 201.218 211.74 201.649C210.881 202.077 209.842 202.29 208.623 202.29ZM206.549 200.783C206.549 200.838 206.593 200.883 206.649 200.883H208.523C209.438 200.883 210.197 200.73 210.803 200.424C211.408 200.114 211.862 199.667 212.162 199.083C212.463 198.496 212.614 197.78 212.614 196.935C212.614 196.097 212.463 195.386 212.162 194.802C211.865 194.218 211.422 193.775 210.832 193.472C210.242 193.17 209.51 193.019 208.635 193.019H206.649C206.593 193.019 206.549 193.064 206.549 193.119V200.783Z"/>
<path d="M222.512 202.29H218.727C218.671 202.29 218.627 202.246 218.627 202.19V191.711C218.627 191.656 218.671 191.611 218.727 191.611H222.635C223.811 191.611 224.82 191.825 225.664 192.252C226.508 192.676 227.155 193.286 227.604 194.083C228.057 194.875 228.284 195.826 228.284 196.935C228.284 198.047 228.055 199.003 227.598 199.803C227.145 200.603 226.488 201.218 225.629 201.649C224.77 202.077 223.73 202.29 222.512 202.29ZM220.437 200.783C220.437 200.838 220.482 200.883 220.537 200.883H222.412C223.326 200.883 224.086 200.73 224.691 200.424C225.297 200.114 225.75 199.667 226.051 199.083C226.352 198.496 226.502 197.78 226.502 196.935C226.502 196.097 226.352 195.386 226.051 194.802C225.754 194.218 225.311 193.775 224.721 193.472C224.131 193.17 223.398 193.019 222.523 193.019H220.537C220.482 193.019 220.437 193.064 220.437 193.119V200.783Z"/>
<path d="M232.615 202.29C232.56 202.29 232.515 202.246 232.515 202.19V191.711C232.515 191.656 232.56 191.611 232.615 191.611H234.226C234.281 191.611 234.326 191.656 234.326 191.711V200.803C234.326 200.859 234.371 200.903 234.426 200.903H239.664C239.719 200.903 239.764 200.948 239.764 201.003V202.19C239.764 202.246 239.719 202.29 239.664 202.29H232.615Z"/>
<path d="M243.91 202.29C243.854 202.29 243.81 202.246 243.81 202.19V191.711C243.81 191.656 243.854 191.611 243.91 191.611H251.233C251.289 191.611 251.333 191.656 251.333 191.711V192.898C251.333 192.953 251.289 192.998 251.233 192.998H245.72C245.665 192.998 245.62 193.043 245.62 193.098V196.152C245.62 196.207 245.665 196.252 245.72 196.252H250.841C250.896 196.252 250.941 196.297 250.941 196.352V197.534C250.941 197.589 250.896 197.634 250.841 197.634H245.72C245.665 197.634 245.62 197.679 245.62 197.734V200.803C245.62 200.859 245.665 200.903 245.72 200.903H251.304C251.359 200.903 251.404 200.948 251.404 201.003V202.19C251.404 202.246 251.359 202.29 251.304 202.29H243.91Z"/>
</mask>
<path d="M119.882 202.29C119.827 202.29 119.782 202.246 119.782 202.19V191.711C119.782 191.656 119.827 191.611 119.882 191.611H121.493C121.548 191.611 121.593 191.656 121.593 191.711V200.803C121.593 200.859 121.638 200.903 121.693 200.903H126.931C126.986 200.903 127.031 200.948 127.031 201.003V202.19C127.031 202.246 126.986 202.29 126.931 202.29H119.882Z" fill="white"/>
<path d="M131.177 202.29C131.121 202.29 131.077 202.246 131.077 202.19V191.711C131.077 191.656 131.121 191.611 131.177 191.611H138.501C138.556 191.611 138.601 191.656 138.601 191.711V192.898C138.601 192.953 138.556 192.998 138.501 192.998H132.987C132.932 192.998 132.887 193.043 132.887 193.098V196.152C132.887 196.207 132.932 196.252 132.987 196.252H138.108C138.163 196.252 138.208 196.297 138.208 196.352V197.534C138.208 197.589 138.163 197.634 138.108 197.634H132.987C132.932 197.634 132.887 197.679 132.887 197.734V200.803C132.887 200.859 132.932 200.903 132.987 200.903H138.571C138.626 200.903 138.671 200.948 138.671 201.003V202.19C138.671 202.246 138.626 202.29 138.571 202.29H131.177Z" fill="white"/>
<path d="M142.508 192.998C142.452 192.998 142.408 192.953 142.408 192.898V191.711C142.408 191.656 142.452 191.611 142.508 191.611H151.595C151.651 191.611 151.695 191.656 151.695 191.711V192.898C151.695 192.953 151.651 192.998 151.595 192.998H148.051C147.996 192.998 147.951 193.043 147.951 193.098V202.19C147.951 202.246 147.906 202.29 147.851 202.29H146.246C146.191 202.29 146.146 202.246 146.146 202.19V193.098C146.146 193.043 146.101 192.998 146.046 192.998H142.508Z" fill="white"/>
<path d="M156.993 191.611C157.048 191.611 157.093 191.656 157.093 191.711V192.612C157.093 192.908 157.031 193.219 156.906 193.545C156.785 193.869 156.613 194.18 156.39 194.479C156.181 194.76 155.937 195.004 155.659 195.211C155.627 195.235 155.582 195.236 155.548 195.214L154.83 194.757C154.78 194.725 154.768 194.658 154.803 194.611C155.006 194.337 155.183 194.048 155.335 193.744C155.507 193.406 155.593 193.034 155.593 192.628V191.711C155.593 191.656 155.638 191.611 155.693 191.611H156.993Z" fill="white"/>
<path d="M167.629 194.416C167.578 194.416 167.536 194.379 167.527 194.329C167.447 193.877 167.193 193.524 166.767 193.269C166.314 192.994 165.744 192.857 165.056 192.857C164.564 192.857 164.138 192.927 163.779 193.066C163.419 193.201 163.14 193.389 162.941 193.629C162.745 193.865 162.648 194.135 162.648 194.437C162.648 194.691 162.714 194.91 162.847 195.094C162.984 195.278 163.161 195.433 163.38 195.558C163.603 195.68 163.841 195.783 164.095 195.866C164.349 195.946 164.593 196.012 164.828 196.064L165.999 196.335C166.382 196.419 166.775 196.532 167.177 196.674C167.58 196.817 167.953 197.005 168.297 197.237C168.64 197.47 168.918 197.759 169.129 198.103C169.343 198.447 169.451 198.859 169.451 199.339C169.451 199.944 169.275 200.481 168.924 200.95C168.576 201.42 168.07 201.79 167.406 202.061C166.746 202.332 165.947 202.468 165.009 202.468C164.111 202.468 163.333 202.341 162.677 202.087C162.021 201.833 161.507 201.473 161.136 201.008C160.785 200.564 160.583 200.043 160.529 199.445C160.523 199.388 160.569 199.339 160.627 199.339H162.246C162.298 199.339 162.34 199.378 162.348 199.43C162.395 199.776 162.532 200.067 162.759 200.304C163.009 200.557 163.327 200.747 163.714 200.872C164.105 200.994 164.533 201.055 164.997 201.055C165.509 201.055 165.964 200.983 166.363 200.841C166.765 200.695 167.082 200.493 167.312 200.236C167.543 199.975 167.658 199.671 167.658 199.323C167.658 199.007 167.556 198.748 167.353 198.546C167.154 198.345 166.882 198.178 166.539 198.046C166.199 197.914 165.814 197.797 165.384 197.696L163.966 197.352C163.005 197.119 162.243 196.777 161.681 196.325C161.122 195.873 160.843 195.275 160.843 194.531C160.843 193.916 161.03 193.379 161.405 192.92C161.78 192.461 162.288 192.105 162.929 191.851C163.57 191.593 164.292 191.465 165.097 191.465C165.91 191.465 166.626 191.592 167.248 191.846C167.873 192.099 168.365 192.449 168.724 192.894C169.062 193.309 169.248 193.782 169.282 194.314C169.286 194.37 169.24 194.416 169.184 194.416H167.629Z" fill="white"/>
<path d="M180.042 202.29C179.987 202.29 179.942 202.246 179.942 202.19V191.711C179.942 191.656 179.987 191.611 180.042 191.611H184.219C185.153 191.611 185.927 191.762 186.54 192.065C187.153 192.367 187.612 192.781 187.917 193.306C188.222 193.827 188.374 194.415 188.374 195.068C188.374 195.725 188.22 196.316 187.911 196.841C187.606 197.363 187.145 197.776 186.528 198.082C185.915 198.385 185.143 198.536 184.214 198.536H181.372C181.317 198.536 181.272 198.491 181.272 198.436V197.27C181.272 197.214 181.317 197.17 181.372 197.17H184.05C184.639 197.17 185.118 197.079 185.485 196.899C185.852 196.714 186.122 196.464 186.294 196.148C186.466 195.831 186.552 195.471 186.552 195.068C186.552 194.665 186.466 194.307 186.294 193.994C186.122 193.681 185.85 193.436 185.479 193.259C185.112 193.081 184.628 192.993 184.026 192.993H181.853C181.797 192.993 181.753 193.038 181.753 193.093V202.19C181.753 202.246 181.708 202.29 181.653 202.29H180.042Z" fill="white"/>
<path d="M192.242 202.227C192.227 202.265 192.19 202.29 192.149 202.29H190.444C190.373 202.29 190.325 202.219 190.351 202.153L194.589 191.673C194.604 191.636 194.641 191.611 194.682 191.611H196.639C196.68 191.611 196.716 191.636 196.731 191.673L200.969 202.153C200.996 202.219 200.947 202.29 200.877 202.29H199.171C199.13 202.29 199.093 202.265 199.078 202.227L195.727 193.594C195.717 193.568 195.691 193.551 195.663 193.551C195.635 193.551 195.61 193.568 195.599 193.594L192.242 202.227ZM192.54 198.208C192.54 198.153 192.585 198.108 192.64 198.108H198.675C198.73 198.108 198.775 198.153 198.775 198.208V199.364C198.775 199.419 198.73 199.464 198.675 199.464H192.64C192.585 199.464 192.54 199.419 192.54 199.364V198.208Z" fill="white"/>
<path d="M208.623 202.29H204.838C204.783 202.29 204.738 202.246 204.738 202.19V191.711C204.738 191.656 204.783 191.611 204.838 191.611H208.746C209.922 191.611 210.932 191.825 211.776 192.252C212.619 192.676 213.266 193.286 213.715 194.083C214.168 194.875 214.395 195.826 214.395 196.935C214.395 198.047 214.166 199.003 213.709 199.803C213.256 200.603 212.6 201.218 211.74 201.649C210.881 202.077 209.842 202.29 208.623 202.29ZM206.549 200.783C206.549 200.838 206.593 200.883 206.649 200.883H208.523C209.438 200.883 210.197 200.73 210.803 200.424C211.408 200.114 211.862 199.667 212.162 199.083C212.463 198.496 212.614 197.78 212.614 196.935C212.614 196.097 212.463 195.386 212.162 194.802C211.865 194.218 211.422 193.775 210.832 193.472C210.242 193.17 209.51 193.019 208.635 193.019H206.649C206.593 193.019 206.549 193.064 206.549 193.119V200.783Z" fill="white"/>
<path d="M222.512 202.29H218.727C218.671 202.29 218.627 202.246 218.627 202.19V191.711C218.627 191.656 218.671 191.611 218.727 191.611H222.635C223.811 191.611 224.82 191.825 225.664 192.252C226.508 192.676 227.155 193.286 227.604 194.083C228.057 194.875 228.284 195.826 228.284 196.935C228.284 198.047 228.055 199.003 227.598 199.803C227.145 200.603 226.488 201.218 225.629 201.649C224.77 202.077 223.73 202.29 222.512 202.29ZM220.437 200.783C220.437 200.838 220.482 200.883 220.537 200.883H222.412C223.326 200.883 224.086 200.73 224.691 200.424C225.297 200.114 225.75 199.667 226.051 199.083C226.352 198.496 226.502 197.78 226.502 196.935C226.502 196.097 226.352 195.386 226.051 194.802C225.754 194.218 225.311 193.775 224.721 193.472C224.131 193.17 223.398 193.019 222.523 193.019H220.537C220.482 193.019 220.437 193.064 220.437 193.119V200.783Z" fill="white"/>
<path d="M232.615 202.29C232.56 202.29 232.515 202.246 232.515 202.19V191.711C232.515 191.656 232.56 191.611 232.615 191.611H234.226C234.281 191.611 234.326 191.656 234.326 191.711V200.803C234.326 200.859 234.371 200.903 234.426 200.903H239.664C239.719 200.903 239.764 200.948 239.764 201.003V202.19C239.764 202.246 239.719 202.29 239.664 202.29H232.615Z" fill="white"/>
<path d="M243.91 202.29C243.854 202.29 243.81 202.246 243.81 202.19V191.711C243.81 191.656 243.854 191.611 243.91 191.611H251.233C251.289 191.611 251.333 191.656 251.333 191.711V192.898C251.333 192.953 251.289 192.998 251.233 192.998H245.72C245.665 192.998 245.62 193.043 245.62 193.098V196.152C245.62 196.207 245.665 196.252 245.72 196.252H250.841C250.896 196.252 250.941 196.297 250.941 196.352V197.534C250.941 197.589 250.896 197.634 250.841 197.634H245.72C245.665 197.634 245.62 197.679 245.62 197.734V200.803C245.62 200.859 245.665 200.903 245.72 200.903H251.304C251.359 200.903 251.404 200.948 251.404 201.003V202.19C251.404 202.246 251.359 202.29 251.304 202.29H243.91Z" fill="white"/>
<path d="M119.882 202.29C119.827 202.29 119.782 202.246 119.782 202.19V191.711C119.782 191.656 119.827 191.611 119.882 191.611H121.493C121.548 191.611 121.593 191.656 121.593 191.711V200.803C121.593 200.859 121.638 200.903 121.693 200.903H126.931C126.986 200.903 127.031 200.948 127.031 201.003V202.19C127.031 202.246 126.986 202.29 126.931 202.29H119.882Z" stroke="white" stroke-width="0.8" stroke-linejoin="round" mask="url(#path-12-outside-1_47_49)"/>
<path d="M131.177 202.29C131.121 202.29 131.077 202.246 131.077 202.19V191.711C131.077 191.656 131.121 191.611 131.177 191.611H138.501C138.556 191.611 138.601 191.656 138.601 191.711V192.898C138.601 192.953 138.556 192.998 138.501 192.998H132.987C132.932 192.998 132.887 193.043 132.887 193.098V196.152C132.887 196.207 132.932 196.252 132.987 196.252H138.108C138.163 196.252 138.208 196.297 138.208 196.352V197.534C138.208 197.589 138.163 197.634 138.108 197.634H132.987C132.932 197.634 132.887 197.679 132.887 197.734V200.803C132.887 200.859 132.932 200.903 132.987 200.903H138.571C138.626 200.903 138.671 200.948 138.671 201.003V202.19C138.671 202.246 138.626 202.29 138.571 202.29H131.177Z" stroke="white" stroke-width="0.8" stroke-linejoin="round" mask="url(#path-12-outside-1_47_49)"/>
<path d="M142.508 192.998C142.452 192.998 142.408 192.953 142.408 192.898V191.711C142.408 191.656 142.452 191.611 142.508 191.611H151.595C151.651 191.611 151.695 191.656 151.695 191.711V192.898C151.695 192.953 151.651 192.998 151.595 192.998H148.051C147.996 192.998 147.951 193.043 147.951 193.098V202.19C147.951 202.246 147.906 202.29 147.851 202.29H146.246C146.191 202.29 146.146 202.246 146.146 202.19V193.098C146.146 193.043 146.101 192.998 146.046 192.998H142.508Z" stroke="white" stroke-width="0.8" stroke-linejoin="round" mask="url(#path-12-outside-1_47_49)"/>
<path d="M156.993 191.611C157.048 191.611 157.093 191.656 157.093 191.711V192.612C157.093 192.908 157.031 193.219 156.906 193.545C156.785 193.869 156.613 194.18 156.39 194.479C156.181 194.76 155.937 195.004 155.659 195.211C155.627 195.235 155.582 195.236 155.548 195.214L154.83 194.757C154.78 194.725 154.768 194.658 154.803 194.611C155.006 194.337 155.183 194.048 155.335 193.744C155.507 193.406 155.593 193.034 155.593 192.628V191.711C155.593 191.656 155.638 191.611 155.693 191.611H156.993Z" stroke="white" stroke-width="0.8" stroke-linejoin="round" mask="url(#path-12-outside-1_47_49)"/>
<path d="M167.629 194.416C167.578 194.416 167.536 194.379 167.527 194.329C167.447 193.877 167.193 193.524 166.767 193.269C166.314 192.994 165.744 192.857 165.056 192.857C164.564 192.857 164.138 192.927 163.779 193.066C163.419 193.201 163.14 193.389 162.941 193.629C162.745 193.865 162.648 194.135 162.648 194.437C162.648 194.691 162.714 194.91 162.847 195.094C162.984 195.278 163.161 195.433 163.38 195.558C163.603 195.68 163.841 195.783 164.095 195.866C164.349 195.946 164.593 196.012 164.828 196.064L165.999 196.335C166.382 196.419 166.775 196.532 167.177 196.674C167.58 196.817 167.953 197.005 168.297 197.237C168.64 197.47 168.918 197.759 169.129 198.103C169.343 198.447 169.451 198.859 169.451 199.339C169.451 199.944 169.275 200.481 168.924 200.95C168.576 201.42 168.07 201.79 167.406 202.061C166.746 202.332 165.947 202.468 165.009 202.468C164.111 202.468 163.333 202.341 162.677 202.087C162.021 201.833 161.507 201.473 161.136 201.008C160.785 200.564 160.583 200.043 160.529 199.445C160.523 199.388 160.569 199.339 160.627 199.339H162.246C162.298 199.339 162.34 199.378 162.348 199.43C162.395 199.776 162.532 200.067 162.759 200.304C163.009 200.557 163.327 200.747 163.714 200.872C164.105 200.994 164.533 201.055 164.997 201.055C165.509 201.055 165.964 200.983 166.363 200.841C166.765 200.695 167.082 200.493 167.312 200.236C167.543 199.975 167.658 199.671 167.658 199.323C167.658 199.007 167.556 198.748 167.353 198.546C167.154 198.345 166.882 198.178 166.539 198.046C166.199 197.914 165.814 197.797 165.384 197.696L163.966 197.352C163.005 197.119 162.243 196.777 161.681 196.325C161.122 195.873 160.843 195.275 160.843 194.531C160.843 193.916 161.03 193.379 161.405 192.92C161.78 192.461 162.288 192.105 162.929 191.851C163.57 191.593 164.292 191.465 165.097 191.465C165.91 191.465 166.626 191.592 167.248 191.846C167.873 192.099 168.365 192.449 168.724 192.894C169.062 193.309 169.248 193.782 169.282 194.314C169.286 194.37 169.24 194.416 169.184 194.416H167.629Z" stroke="white" stroke-width="0.8" stroke-linejoin="round" mask="url(#path-12-outside-1_47_49)"/>
<path d="M180.042 202.29C179.987 202.29 179.942 202.246 179.942 202.19V191.711C179.942 191.656 179.987 191.611 180.042 191.611H184.219C185.153 191.611 185.927 191.762 186.54 192.065C187.153 192.367 187.612 192.781 187.917 193.306C188.222 193.827 188.374 194.415 188.374 195.068C188.374 195.725 188.22 196.316 187.911 196.841C187.606 197.363 187.145 197.776 186.528 198.082C185.915 198.385 185.143 198.536 184.214 198.536H181.372C181.317 198.536 181.272 198.491 181.272 198.436V197.27C181.272 197.214 181.317 197.17 181.372 197.17H184.05C184.639 197.17 185.118 197.079 185.485 196.899C185.852 196.714 186.122 196.464 186.294 196.148C186.466 195.831 186.552 195.471 186.552 195.068C186.552 194.665 186.466 194.307 186.294 193.994C186.122 193.681 185.85 193.436 185.479 193.259C185.112 193.081 184.628 192.993 184.026 192.993H181.853C181.797 192.993 181.753 193.038 181.753 193.093V202.19C181.753 202.246 181.708 202.29 181.653 202.29H180.042Z" stroke="white" stroke-width="0.8" stroke-linejoin="round" mask="url(#path-12-outside-1_47_49)"/>
<path d="M192.242 202.227C192.227 202.265 192.19 202.29 192.149 202.29H190.444C190.373 202.29 190.325 202.219 190.351 202.153L194.589 191.673C194.604 191.636 194.641 191.611 194.682 191.611H196.639C196.68 191.611 196.716 191.636 196.731 191.673L200.969 202.153C200.996 202.219 200.947 202.29 200.877 202.29H199.171C199.13 202.29 199.093 202.265 199.078 202.227L195.727 193.594C195.717 193.568 195.691 193.551 195.663 193.551C195.635 193.551 195.61 193.568 195.599 193.594L192.242 202.227ZM192.54 198.208C192.54 198.153 192.585 198.108 192.64 198.108H198.675C198.73 198.108 198.775 198.153 198.775 198.208V199.364C198.775 199.419 198.73 199.464 198.675 199.464H192.64C192.585 199.464 192.54 199.419 192.54 199.364V198.208Z" stroke="white" stroke-width="0.8" stroke-linejoin="round" mask="url(#path-12-outside-1_47_49)"/>
<path d="M208.623 202.29H204.838C204.783 202.29 204.738 202.246 204.738 202.19V191.711C204.738 191.656 204.783 191.611 204.838 191.611H208.746C209.922 191.611 210.932 191.825 211.776 192.252C212.619 192.676 213.266 193.286 213.715 194.083C214.168 194.875 214.395 195.826 214.395 196.935C214.395 198.047 214.166 199.003 213.709 199.803C213.256 200.603 212.6 201.218 211.74 201.649C210.881 202.077 209.842 202.29 208.623 202.29ZM206.549 200.783C206.549 200.838 206.593 200.883 206.649 200.883H208.523C209.438 200.883 210.197 200.73 210.803 200.424C211.408 200.114 211.862 199.667 212.162 199.083C212.463 198.496 212.614 197.78 212.614 196.935C212.614 196.097 212.463 195.386 212.162 194.802C211.865 194.218 211.422 193.775 210.832 193.472C210.242 193.17 209.51 193.019 208.635 193.019H206.649C206.593 193.019 206.549 193.064 206.549 193.119V200.783Z" stroke="white" stroke-width="0.8" stroke-linejoin="round" mask="url(#path-12-outside-1_47_49)"/>
<path d="M222.512 202.29H218.727C218.671 202.29 218.627 202.246 218.627 202.19V191.711C218.627 191.656 218.671 191.611 218.727 191.611H222.635C223.811 191.611 224.82 191.825 225.664 192.252C226.508 192.676 227.155 193.286 227.604 194.083C228.057 194.875 228.284 195.826 228.284 196.935C228.284 198.047 228.055 199.003 227.598 199.803C227.145 200.603 226.488 201.218 225.629 201.649C224.77 202.077 223.73 202.29 222.512 202.29ZM220.437 200.783C220.437 200.838 220.482 200.883 220.537 200.883H222.412C223.326 200.883 224.086 200.73 224.691 200.424C225.297 200.114 225.75 199.667 226.051 199.083C226.352 198.496 226.502 197.78 226.502 196.935C226.502 196.097 226.352 195.386 226.051 194.802C225.754 194.218 225.311 193.775 224.721 193.472C224.131 193.17 223.398 193.019 222.523 193.019H220.537C220.482 193.019 220.437 193.064 220.437 193.119V200.783Z" stroke="white" stroke-width="0.8" stroke-linejoin="round" mask="url(#path-12-outside-1_47_49)"/>
<path d="M232.615 202.29C232.56 202.29 232.515 202.246 232.515 202.19V191.711C232.515 191.656 232.56 191.611 232.615 191.611H234.226C234.281 191.611 234.326 191.656 234.326 191.711V200.803C234.326 200.859 234.371 200.903 234.426 200.903H239.664C239.719 200.903 239.764 200.948 239.764 201.003V202.19C239.764 202.246 239.719 202.29 239.664 202.29H232.615Z" stroke="white" stroke-width="0.8" stroke-linejoin="round" mask="url(#path-12-outside-1_47_49)"/>
<path d="M243.91 202.29C243.854 202.29 243.81 202.246 243.81 202.19V191.711C243.81 191.656 243.854 191.611 243.91 191.611H251.233C251.289 191.611 251.333 191.656 251.333 191.711V192.898C251.333 192.953 251.289 192.998 251.233 192.998H245.72C245.665 192.998 245.62 193.043 245.62 193.098V196.152C245.62 196.207 245.665 196.252 245.72 196.252H250.841C250.896 196.252 250.941 196.297 250.941 196.352V197.534C250.941 197.589 250.896 197.634 250.841 197.634H245.72C245.665 197.634 245.62 197.679 245.62 197.734V200.803C245.62 200.859 245.665 200.903 245.72 200.903H251.304C251.359 200.903 251.404 200.948 251.404 201.003V202.19C251.404 202.246 251.359 202.29 251.304 202.29H243.91Z" stroke="white" stroke-width="0.8" stroke-linejoin="round" mask="url(#path-12-outside-1_47_49)"/>
</svg>
