<svg width="402" height="137" viewBox="0 0 402 137" fill="none" xmlns="http://www.w3.org/2000/svg">
<mask id="path-1-inside-1_111_87" fill="white">
<path d="M64.3817 25.4081C61.6483 24.5254 61.6042 20.7369 64.3426 19.8695C96.557 9.66563 137.927 3.3431 182.028 1.95827C230.056 0.450104 278.068 4.9006 317.167 14.4852C356.266 24.0697 383.802 38.1386 394.672 54.0851C405.543 70.0316 399.012 86.7747 376.288 101.212C353.565 115.65 316.191 126.803 271.089 132.605C225.988 138.408 176.218 138.466 131 132.769C85.7818 127.072 48.1815 116.007 25.1657 101.623C3.49315 88.0784 -3.86436 72.4562 4.15606 57.3437C5.09974 55.5656 7.0696 54.6345 9.07683 54.7872C13.2951 55.1079 15.633 59.9522 14.6201 64.0597C11.6035 76.2914 19.1295 88.6262 36.5648 99.5225C58.0835 112.971 93.2379 123.317 135.514 128.643C177.791 133.969 224.324 133.914 266.491 128.489C308.658 123.065 343.602 112.637 364.847 99.1386C386.092 85.6403 392.198 69.9863 382.035 55.0771C371.871 40.168 346.127 27.0143 309.571 18.0532C273.016 9.09211 228.127 4.93112 183.223 6.34118C138.778 7.73682 97.2997 14.4965 66.3112 25.3831C65.6863 25.6026 65.012 25.6116 64.3817 25.4081Z"/>
</mask>
<path d="M64.3817 25.4081C61.6483 24.5254 61.6042 20.7369 64.3426 19.8695C96.557 9.66563 137.927 3.3431 182.028 1.95827C230.056 0.450104 278.068 4.9006 317.167 14.4852C356.266 24.0697 383.802 38.1386 394.672 54.0851C405.543 70.0316 399.012 86.7747 376.288 101.212C353.565 115.65 316.191 126.803 271.089 132.605C225.988 138.408 176.218 138.466 131 132.769C85.7818 127.072 48.1815 116.007 25.1657 101.623C3.49315 88.0784 -3.86436 72.4562 4.15606 57.3437C5.09974 55.5656 7.0696 54.6345 9.07683 54.7872C13.2951 55.1079 15.633 59.9522 14.6201 64.0597C11.6035 76.2914 19.1295 88.6262 36.5648 99.5225C58.0835 112.971 93.2379 123.317 135.514 128.643C177.791 133.969 224.324 133.914 266.491 128.489C308.658 123.065 343.602 112.637 364.847 99.1386C386.092 85.6403 392.198 69.9863 382.035 55.0771C371.871 40.168 346.127 27.0143 309.571 18.0532C273.016 9.09211 228.127 4.93112 183.223 6.34118C138.778 7.73682 97.2997 14.4965 66.3112 25.3831C65.6863 25.6026 65.012 25.6116 64.3817 25.4081Z" stroke="black" stroke-width="8" stroke-miterlimit="5.75877" stroke-linejoin="round" mask="url(#path-1-inside-1_111_87)"/>
<path d="M85.5439 46.9874C91.1652 46.9874 95.5052 48.2894 98.5638 50.8934C101.623 53.4975 103.152 57.1555 103.152 61.8675C103.152 66.7861 101.623 70.6095 98.5638 73.3375C95.5052 76.0655 91.1652 77.4295 85.5439 77.4295H75.7478V90.3875H67.4398V46.9874H85.5439ZM85.5439 70.5474C88.6438 70.5474 91.0412 69.8448 92.7359 68.4395C94.4305 67.0341 95.2779 64.9055 95.2779 62.0535C95.2779 59.3255 94.4305 57.3001 92.7359 55.9775C91.0412 54.6135 88.6438 53.9315 85.5439 53.9315H75.7478V70.5474H85.5439ZM85.2339 74.2674H93.3558L104.02 90.3875H94.5959L85.2339 74.2674ZM118.445 46.9874H150.251V53.9315H126.753V65.1535H147.833V72.0355H126.753V83.4435H150.995V90.3875H118.445V46.9874ZM165.635 46.9874H173.509L198.061 80.3435L195.891 81.0875V46.9874H203.951V90.3875H196.015L171.587 57.0935L173.757 56.3494V90.3875H165.635V46.9874ZM215.981 46.9874H251.383V53.9935H237.867V90.3875H229.497V53.9935H215.981V46.9874ZM272.748 46.9874H281.242L300.028 90.3875H291.162L276.716 55.3575L262.332 90.3875H253.652L272.748 46.9874ZM263.634 74.1434H289.488V80.9015H263.634V74.1434ZM311.565 46.9874H319.873V83.3195H338.597V90.3875H311.565V46.9874Z" fill="black"/>
<path d="M98.5639 50.8934L98.2397 51.2742L98.5639 50.8934ZM98.5639 73.3375L98.231 72.9643L98.5639 73.3375ZM75.7479 77.4295V76.9295C75.4717 76.9295 75.2479 77.1533 75.2479 77.4295H75.7479ZM75.7479 90.3875V90.8875C76.024 90.8875 76.2479 90.6636 76.2479 90.3875H75.7479ZM67.4398 90.3875H66.9398C66.9398 90.6636 67.1637 90.8875 67.4398 90.8875V90.3875ZM67.4398 46.9874V46.4874C67.1637 46.4874 66.9398 46.7113 66.9398 46.9874H67.4398ZM92.7358 68.4394L93.055 68.8243L92.7358 68.4394ZM92.7358 55.9775L92.4223 56.367L92.4282 56.3716L92.7358 55.9775ZM75.7479 53.9315V53.4315C75.4717 53.4315 75.2479 53.6553 75.2479 53.9315H75.7479ZM75.7479 70.5475H75.2479C75.2479 70.8236 75.4717 71.0475 75.7479 71.0475V70.5475ZM85.2339 74.2674V73.7674C85.055 73.7674 84.8898 73.863 84.8005 74.018C84.7113 74.173 84.7117 74.3639 84.8015 74.5186L85.2339 74.2674ZM93.3559 74.2674L93.7729 73.9916C93.6803 73.8516 93.5237 73.7674 93.3559 73.7674V74.2674ZM104.02 90.3875V90.8875C104.204 90.8875 104.373 90.7863 104.46 90.6242C104.547 90.462 104.538 90.2651 104.437 90.1116L104.02 90.3875ZM94.5959 90.3875L94.1635 90.6386C94.253 90.7926 94.4177 90.8875 94.5959 90.8875V90.3875ZM85.5438 47.4874C91.0935 47.4874 95.3018 48.773 98.2397 51.2742L98.888 50.5127C95.7085 47.8059 91.2369 46.4874 85.5438 46.4874V47.4874ZM98.2397 51.2742C101.167 53.7664 102.652 57.2739 102.652 61.8675H103.652C103.652 57.037 102.078 53.2285 98.888 50.5127L98.2397 51.2742ZM102.652 61.8675C102.652 66.6747 101.162 70.3501 98.231 72.9643L98.8967 73.7106C102.083 70.8688 103.652 66.8975 103.652 61.8675H102.652ZM98.231 72.9643C95.2932 75.5845 91.0883 76.9295 85.5438 76.9295V77.9295C91.2421 77.9295 95.7171 76.5464 98.8967 73.7106L98.231 72.9643ZM85.5438 76.9295H75.7479V77.9295H85.5438V76.9295ZM75.2479 77.4295V90.3875H76.2479V77.4295H75.2479ZM75.7479 89.8875H67.4398V90.8875H75.7479V89.8875ZM67.9398 90.3875V46.9874H66.9398V90.3875H67.9398ZM67.4398 47.4874H85.5438V46.4874H67.4398V47.4874ZM85.5438 71.0475C88.7135 71.0475 91.2402 70.3293 93.055 68.8243L92.4167 68.0546C90.8422 69.3602 88.5742 70.0475 85.5438 70.0475V71.0475ZM93.055 68.8243C94.8963 67.2974 95.7779 65.0069 95.7779 62.0534H94.7779C94.7779 64.804 93.9648 66.7708 92.4167 68.0546L93.055 68.8243ZM95.7779 62.0534C95.7779 59.2168 94.8913 57.0255 93.0435 55.5833L92.4282 56.3716C93.9697 57.5747 94.7779 59.4341 94.7779 62.0534H95.7779ZM93.0494 55.5879C91.2349 54.1275 88.7105 53.4315 85.5438 53.4315V54.4315C88.5772 54.4315 90.8475 55.0994 92.4223 56.367L93.0494 55.5879ZM85.5438 53.4315H75.7479V54.4315H85.5438V53.4315ZM75.2479 53.9315V70.5475H76.2479V53.9315H75.2479ZM75.7479 71.0475H85.5438V70.0475H75.7479V71.0475ZM85.2339 74.7674H93.3559V73.7674H85.2339V74.7674ZM92.9388 74.5433L103.603 90.6633L104.437 90.1116L93.7729 73.9916L92.9388 74.5433ZM104.02 89.8875H94.5959V90.8875H104.02V89.8875ZM95.0282 90.1363L85.6662 74.0163L84.8015 74.5186L94.1635 90.6386L95.0282 90.1363ZM118.445 46.9874V46.4874C118.168 46.4874 117.945 46.7113 117.945 46.9874H118.445ZM150.251 46.9874H150.751C150.751 46.7113 150.527 46.4874 150.251 46.4874V46.9874ZM150.251 53.9315V54.4315C150.527 54.4315 150.751 54.2076 150.751 53.9315H150.251ZM126.753 53.9315V53.4315C126.476 53.4315 126.253 53.6553 126.253 53.9315H126.753ZM126.753 65.1535H126.253C126.253 65.4296 126.476 65.6535 126.753 65.6535V65.1535ZM147.833 65.1535H148.333C148.333 64.8773 148.109 64.6535 147.833 64.6535V65.1535ZM147.833 72.0354V72.5354C148.109 72.5354 148.333 72.3116 148.333 72.0354H147.833ZM126.753 72.0354V71.5354C126.476 71.5354 126.253 71.7593 126.253 72.0354H126.753ZM126.753 83.4435H126.253C126.253 83.7196 126.476 83.9435 126.753 83.9435V83.4435ZM150.995 83.4435H151.495C151.495 83.1673 151.271 82.9435 150.995 82.9435V83.4435ZM150.995 90.3875V90.8875C151.271 90.8875 151.495 90.6636 151.495 90.3875H150.995ZM118.445 90.3875H117.945C117.945 90.6636 118.168 90.8875 118.445 90.8875V90.3875ZM118.445 47.4874H150.251V46.4874H118.445V47.4874ZM149.751 46.9874V53.9315H150.751V46.9874H149.751ZM150.251 53.4315H126.753V54.4315H150.251V53.4315ZM126.253 53.9315V65.1535H127.253V53.9315H126.253ZM126.753 65.6535H147.833V64.6535H126.753V65.6535ZM147.333 65.1535V72.0354H148.333V65.1535H147.333ZM147.833 71.5354H126.753V72.5354H147.833V71.5354ZM126.253 72.0354V83.4435H127.253V72.0354H126.253ZM126.753 83.9435H150.995V82.9435H126.753V83.9435ZM150.495 83.4435V90.3875H151.495V83.4435H150.495ZM150.995 89.8875H118.445V90.8875H150.995V89.8875ZM118.945 90.3875V46.9874H117.945V90.3875H118.945ZM165.635 46.9874V46.4874C165.359 46.4874 165.135 46.7113 165.135 46.9874H165.635ZM173.509 46.9874L173.911 46.6911C173.817 46.563 173.668 46.4874 173.509 46.4874V46.9874ZM198.061 80.3435L198.223 80.8164C198.374 80.7648 198.491 80.6446 198.538 80.4926C198.585 80.3407 198.558 80.1753 198.463 80.0471L198.061 80.3435ZM195.891 81.0875H195.391C195.391 81.2489 195.469 81.4005 195.6 81.4943C195.732 81.5882 195.9 81.6128 196.053 81.5604L195.891 81.0875ZM195.891 46.9874V46.4874C195.615 46.4874 195.391 46.7113 195.391 46.9874H195.891ZM203.951 46.9874H204.451C204.451 46.7113 204.227 46.4874 203.951 46.4874V46.9874ZM203.951 90.3875V90.8875C204.227 90.8875 204.451 90.6636 204.451 90.3875H203.951ZM196.015 90.3875L195.612 90.6832C195.706 90.8116 195.856 90.8875 196.015 90.8875V90.3875ZM171.587 57.0935L171.425 56.6205C171.274 56.6721 171.157 56.7921 171.11 56.9439C171.062 57.0957 171.09 57.261 171.184 57.3892L171.587 57.0935ZM173.757 56.3494H174.257C174.257 56.188 174.179 56.0364 174.047 55.9426C173.916 55.8487 173.747 55.8241 173.595 55.8765L173.757 56.3494ZM173.757 90.3875V90.8875C174.033 90.8875 174.257 90.6636 174.257 90.3875H173.757ZM165.635 90.3875H165.135C165.135 90.6636 165.359 90.8875 165.635 90.8875V90.3875ZM165.635 47.4874H173.509V46.4874H165.635V47.4874ZM173.106 47.2838L197.658 80.6398L198.463 80.0471L173.911 46.6911L173.106 47.2838ZM197.899 79.8705L195.729 80.6145L196.053 81.5604L198.223 80.8164L197.899 79.8705ZM196.391 81.0875V46.9874H195.391V81.0875H196.391ZM195.891 47.4874H203.951V46.4874H195.891V47.4874ZM203.451 46.9874V90.3875H204.451V46.9874H203.451ZM203.951 89.8875H196.015V90.8875H203.951V89.8875ZM196.418 90.0917L171.99 56.7977L171.184 57.3892L195.612 90.6832L196.418 90.0917ZM171.749 57.5664L173.919 56.8224L173.595 55.8765L171.425 56.6205L171.749 57.5664ZM173.257 56.3494V90.3875H174.257V56.3494H173.257ZM173.757 89.8875H165.635V90.8875H173.757V89.8875ZM166.135 90.3875V46.9874H165.135V90.3875H166.135ZM215.981 46.9874V46.4874C215.705 46.4874 215.481 46.7113 215.481 46.9874H215.981ZM251.383 46.9874H251.883C251.883 46.7113 251.659 46.4874 251.383 46.4874V46.9874ZM251.383 53.9935V54.4935C251.659 54.4935 251.883 54.2696 251.883 53.9935H251.383ZM237.867 53.9935V53.4935C237.591 53.4935 237.367 53.7173 237.367 53.9935H237.867ZM237.867 90.3875V90.8875C238.143 90.8875 238.367 90.6636 238.367 90.3875H237.867ZM229.497 90.3875H228.997C228.997 90.6636 229.221 90.8875 229.497 90.8875V90.3875ZM229.497 53.9935H229.997C229.997 53.7173 229.773 53.4935 229.497 53.4935V53.9935ZM215.981 53.9935H215.481C215.481 54.2696 215.705 54.4935 215.981 54.4935V53.9935ZM215.981 47.4874H251.383V46.4874H215.981V47.4874ZM250.883 46.9874V53.9935H251.883V46.9874H250.883ZM251.383 53.4935H237.867V54.4935H251.383V53.4935ZM237.367 53.9935V90.3875H238.367V53.9935H237.367ZM237.867 89.8875H229.497V90.8875H237.867V89.8875ZM229.997 90.3875V53.9935H228.997V90.3875H229.997ZM229.497 53.4935H215.981V54.4935H229.497V53.4935ZM216.481 53.9935V46.9874H215.481V53.9935H216.481ZM272.748 46.9874V46.4874C272.55 46.4874 272.371 46.6046 272.291 46.7861L272.748 46.9874ZM281.242 46.9874L281.701 46.7888C281.622 46.6059 281.442 46.4874 281.242 46.4874V46.9874ZM300.028 90.3875V90.8875C300.197 90.8875 300.354 90.8027 300.446 90.6619C300.539 90.5212 300.554 90.3434 300.487 90.1888L300.028 90.3875ZM291.162 90.3875L290.7 90.5781C290.777 90.7653 290.96 90.8875 291.162 90.8875V90.3875ZM276.716 55.3575L277.179 55.1668C277.101 54.9795 276.919 54.8573 276.716 54.8575C276.513 54.8576 276.331 54.9801 276.254 55.1675L276.716 55.3575ZM262.332 90.3875V90.8875C262.535 90.8875 262.718 90.765 262.795 90.5774L262.332 90.3875ZM253.652 90.3875L253.195 90.1861C253.127 90.3407 253.141 90.5192 253.234 90.6607C253.326 90.8022 253.484 90.8875 253.652 90.8875V90.3875ZM263.634 74.1434V73.6434C263.358 73.6434 263.134 73.8673 263.134 74.1434H263.634ZM289.488 74.1434H289.988C289.988 73.8673 289.765 73.6434 289.488 73.6434V74.1434ZM289.488 80.9015V81.4015C289.765 81.4015 289.988 81.1776 289.988 80.9015H289.488ZM263.634 80.9015H263.134C263.134 81.1776 263.358 81.4015 263.634 81.4015V80.9015ZM272.748 47.4874H281.242V46.4874H272.748V47.4874ZM280.784 47.1861L299.57 90.5861L300.487 90.1888L281.701 46.7888L280.784 47.1861ZM300.028 89.8875H291.162V90.8875H300.028V89.8875ZM291.625 90.1968L277.179 55.1668L276.254 55.5481L290.7 90.5781L291.625 90.1968ZM276.254 55.1675L261.87 90.1975L262.795 90.5774L277.179 55.5474L276.254 55.1675ZM262.332 89.8875H253.652V90.8875H262.332V89.8875ZM254.11 90.5888L273.206 47.1888L272.291 46.7861L253.195 90.1861L254.11 90.5888ZM263.634 74.6434H289.488V73.6434H263.634V74.6434ZM288.988 74.1434V80.9015H289.988V74.1434H288.988ZM289.488 80.4015H263.634V81.4015H289.488V80.4015ZM264.134 80.9015V74.1434H263.134V80.9015H264.134ZM311.565 46.9874V46.4874C311.289 46.4874 311.065 46.7113 311.065 46.9874H311.565ZM319.873 46.9874H320.373C320.373 46.7113 320.149 46.4874 319.873 46.4874V46.9874ZM319.873 83.3195H319.373C319.373 83.5956 319.597 83.8195 319.873 83.8195V83.3195ZM338.597 83.3195H339.097C339.097 83.0433 338.873 82.8195 338.597 82.8195V83.3195ZM338.597 90.3875V90.8875C338.873 90.8875 339.097 90.6636 339.097 90.3875H338.597ZM311.565 90.3875H311.065C311.065 90.6636 311.289 90.8875 311.565 90.8875V90.3875ZM311.565 47.4874H319.873V46.4874H311.565V47.4874ZM319.373 46.9874V83.3195H320.373V46.9874H319.373ZM319.873 83.8195H338.597V82.8195H319.873V83.8195ZM338.097 83.3195V90.3875H339.097V83.3195H338.097ZM338.597 89.8875H311.565V90.8875H338.597V89.8875ZM312.065 90.3875V46.9874H311.065V90.3875H312.065Z" fill="black"/>
<path d="M29.325 34.3834L30.9461 19.6293L32.5672 34.3834C32.649 35.1282 33.237 35.7162 33.9818 35.7981L48.7359 37.4191L33.9818 39.0402C33.237 39.122 32.649 39.7101 32.5672 40.4548L30.9461 55.2089L29.325 40.4548C29.2432 39.7101 28.6552 39.122 27.9104 39.0402L13.1563 37.4191L27.9104 35.7981C28.6552 35.7162 29.2432 35.1282 29.325 34.3834Z" stroke="black" stroke-width="2"/>
</svg>
