<svg width="399" height="136" viewBox="0 0 399 136" fill="none" xmlns="http://www.w3.org/2000/svg">
<mask id="path-1-inside-1_109_110" fill="white">
<path d="M63.3817 23.935C60.6483 23.0522 60.6042 19.2637 63.3426 18.3963C95.557 8.19249 136.927 1.86996 181.028 0.485129C229.056 -1.02304 277.068 3.42746 316.167 13.012C355.266 22.5966 382.802 36.6655 393.672 52.612C404.543 68.5585 398.012 85.3016 375.288 99.7391C352.565 114.177 315.191 125.33 270.089 131.132C224.988 136.934 175.218 136.993 130 131.296C84.7818 125.599 47.1815 114.534 24.1657 100.15C2.49315 86.6053 -4.86436 70.983 3.15606 55.8705C4.09974 54.0924 6.0696 53.1614 8.07683 53.314C12.2951 53.6348 14.633 58.4791 13.6201 62.5865C10.6035 74.8183 18.1295 87.153 35.5648 98.0494C57.0835 111.498 92.2379 121.843 134.514 127.17C176.791 132.496 223.324 132.441 265.491 127.016C307.658 121.591 342.602 111.164 363.847 97.6655C385.092 84.1671 391.198 68.5132 381.035 53.604C370.871 38.6948 345.127 25.5411 308.571 16.58C272.016 7.61897 227.127 3.45798 182.223 4.86804C137.778 6.26367 96.2997 13.0233 65.3112 23.9099C64.6863 24.1295 64.012 24.1385 63.3817 23.935Z"/>
</mask>
<path d="M63.3817 23.935C60.6483 23.0522 60.6042 19.2637 63.3426 18.3963C95.557 8.19249 136.927 1.86996 181.028 0.485129C229.056 -1.02304 277.068 3.42746 316.167 13.012C355.266 22.5966 382.802 36.6655 393.672 52.612C404.543 68.5585 398.012 85.3016 375.288 99.7391C352.565 114.177 315.191 125.33 270.089 131.132C224.988 136.934 175.218 136.993 130 131.296C84.7818 125.599 47.1815 114.534 24.1657 100.15C2.49315 86.6053 -4.86436 70.983 3.15606 55.8705C4.09974 54.0924 6.0696 53.1614 8.07683 53.314C12.2951 53.6348 14.633 58.4791 13.6201 62.5865C10.6035 74.8183 18.1295 87.153 35.5648 98.0494C57.0835 111.498 92.2379 121.843 134.514 127.17C176.791 132.496 223.324 132.441 265.491 127.016C307.658 121.591 342.602 111.164 363.847 97.6655C385.092 84.1671 391.198 68.5132 381.035 53.604C370.871 38.6948 345.127 25.5411 308.571 16.58C272.016 7.61897 227.127 3.45798 182.223 4.86804C137.778 6.26367 96.2997 13.0233 65.3112 23.9099C64.6863 24.1295 64.012 24.1385 63.3817 23.935Z" stroke="black" stroke-width="8" stroke-miterlimit="5.75877" stroke-linejoin="round" mask="url(#path-1-inside-1_109_110)"/>
<path d="M84.5439 45.5143C90.1652 45.5143 94.5052 46.8163 97.5638 49.4203C100.623 52.0243 102.152 55.6823 102.152 60.3943C102.152 65.313 100.623 69.1363 97.5638 71.8643C94.5052 74.5923 90.1652 75.9563 84.5439 75.9563H74.7478V88.9143H66.4398V45.5143H84.5439ZM84.5439 69.0743C87.6438 69.0743 90.0412 68.3716 91.7359 66.9663C93.4305 65.561 94.2779 63.4323 94.2779 60.5803C94.2779 57.8523 93.4305 55.827 91.7359 54.5043C90.0412 53.1403 87.6438 52.4583 84.5439 52.4583H74.7478V69.0743H84.5439ZM84.2339 72.7943H92.3558L103.02 88.9143H93.5959L84.2339 72.7943ZM117.445 45.5143H149.251V52.4583H125.753V63.6803H146.833V70.5623H125.753V81.9703H149.995V88.9143H117.445V45.5143ZM164.635 45.5143H172.509L197.061 78.8703L194.891 79.6143V45.5143H202.951V88.9143H195.015L170.587 55.6203L172.757 54.8763V88.9143H164.635V45.5143ZM214.981 45.5143H250.383V52.5203H236.867V88.9143H228.497V52.5203H214.981V45.5143ZM271.748 45.5143H280.242L299.028 88.9143H290.162L275.716 53.8843L261.332 88.9143H252.652L271.748 45.5143ZM262.634 72.6703H288.488V79.4283H262.634V72.6703ZM310.565 45.5143H318.873V81.8463H337.597V88.9143H310.565V45.5143Z" fill="black"/>
<path d="M97.5639 49.4203L97.2397 49.801L97.5639 49.4203ZM97.5639 71.8643L97.231 71.4912L97.5639 71.8643ZM74.7479 75.9563V75.4563C74.4717 75.4563 74.2479 75.6802 74.2479 75.9563H74.7479ZM74.7479 88.9143V89.4143C75.024 89.4143 75.2479 89.1904 75.2479 88.9143H74.7479ZM66.4398 88.9143H65.9398C65.9398 89.1904 66.1637 89.4143 66.4398 89.4143V88.9143ZM66.4398 45.5143V45.0143C66.1637 45.0143 65.9398 45.2382 65.9398 45.5143H66.4398ZM91.7358 66.9663L92.055 67.3512L91.7358 66.9663ZM91.7358 54.5043L91.4223 54.8939L91.4282 54.8985L91.7358 54.5043ZM74.7479 52.4583V51.9583C74.4717 51.9583 74.2479 52.1822 74.2479 52.4583H74.7479ZM74.7479 69.0743H74.2479C74.2479 69.3504 74.4717 69.5743 74.7479 69.5743V69.0743ZM84.2339 72.7943V72.2943C84.055 72.2943 83.8898 72.3898 83.8005 72.5449C83.7113 72.6999 83.7117 72.8907 83.8015 73.0454L84.2339 72.7943ZM92.3559 72.7943L92.7729 72.5184C92.6803 72.3785 92.5237 72.2943 92.3559 72.2943V72.7943ZM103.02 88.9143V89.4143C103.204 89.4143 103.373 89.3132 103.46 89.151C103.547 88.9889 103.538 88.792 103.437 88.6384L103.02 88.9143ZM93.5959 88.9143L93.1635 89.1654C93.253 89.3195 93.4177 89.4143 93.5959 89.4143V88.9143ZM84.5438 46.0143C90.0935 46.0143 94.3018 47.2998 97.2397 49.801L97.888 49.0396C94.7085 46.3328 90.2369 45.0143 84.5438 45.0143V46.0143ZM97.2397 49.801C100.167 52.2932 101.652 55.8008 101.652 60.3943H102.652C102.652 55.5638 101.078 51.7554 97.888 49.0396L97.2397 49.801ZM101.652 60.3943C101.652 65.2015 100.162 68.8769 97.231 71.4912L97.8967 72.2375C101.083 69.3957 102.652 65.4244 102.652 60.3943H101.652ZM97.231 71.4912C94.2932 74.1114 90.0883 75.4563 84.5438 75.4563V76.4563C90.2421 76.4563 94.7171 75.0732 97.8967 72.2375L97.231 71.4912ZM84.5438 75.4563H74.7479V76.4563H84.5438V75.4563ZM74.2479 75.9563V88.9143H75.2479V75.9563H74.2479ZM74.7479 88.4143H66.4398V89.4143H74.7479V88.4143ZM66.9398 88.9143V45.5143H65.9398V88.9143H66.9398ZM66.4398 46.0143H84.5438V45.0143H66.4398V46.0143ZM84.5438 69.5743C87.7135 69.5743 90.2402 68.8562 92.055 67.3512L91.4167 66.5814C89.8422 67.8871 87.5742 68.5743 84.5438 68.5743V69.5743ZM92.055 67.3512C93.8963 65.8243 94.7779 63.5338 94.7779 60.5803H93.7779C93.7779 63.3308 92.9648 65.2976 91.4167 66.5814L92.055 67.3512ZM94.7779 60.5803C94.7779 57.7437 93.8913 55.5524 92.0435 54.1101L91.4282 54.8985C92.9697 56.1016 93.7779 57.9609 93.7779 60.5803H94.7779ZM92.0494 54.1148C90.2349 52.6544 87.7105 51.9583 84.5438 51.9583V52.9583C87.5772 52.9583 89.8475 53.6263 91.4223 54.8938L92.0494 54.1148ZM84.5438 51.9583H74.7479V52.9583H84.5438V51.9583ZM74.2479 52.4583V69.0743H75.2479V52.4583H74.2479ZM74.7479 69.5743H84.5438V68.5743H74.7479V69.5743ZM84.2339 73.2943H92.3559V72.2943H84.2339V73.2943ZM91.9388 73.0702L102.603 89.1902L103.437 88.6384L92.7729 72.5184L91.9388 73.0702ZM103.02 88.4143H93.5959V89.4143H103.02V88.4143ZM94.0282 88.6632L84.6662 72.5432L83.8015 73.0454L93.1635 89.1654L94.0282 88.6632ZM117.445 45.5143V45.0143C117.168 45.0143 116.945 45.2382 116.945 45.5143H117.445ZM149.251 45.5143H149.751C149.751 45.2382 149.527 45.0143 149.251 45.0143V45.5143ZM149.251 52.4583V52.9583C149.527 52.9583 149.751 52.7344 149.751 52.4583H149.251ZM125.753 52.4583V51.9583C125.476 51.9583 125.253 52.1822 125.253 52.4583H125.753ZM125.753 63.6803H125.253C125.253 63.9564 125.476 64.1803 125.753 64.1803V63.6803ZM146.833 63.6803H147.333C147.333 63.4042 147.109 63.1803 146.833 63.1803V63.6803ZM146.833 70.5623V71.0623C147.109 71.0623 147.333 70.8384 147.333 70.5623H146.833ZM125.753 70.5623V70.0623C125.476 70.0623 125.253 70.2862 125.253 70.5623H125.753ZM125.753 81.9703H125.253C125.253 82.2464 125.476 82.4703 125.753 82.4703V81.9703ZM149.995 81.9703H150.495C150.495 81.6942 150.271 81.4703 149.995 81.4703V81.9703ZM149.995 88.9143V89.4143C150.271 89.4143 150.495 89.1904 150.495 88.9143H149.995ZM117.445 88.9143H116.945C116.945 89.1904 117.168 89.4143 117.445 89.4143V88.9143ZM117.445 46.0143H149.251V45.0143H117.445V46.0143ZM148.751 45.5143V52.4583H149.751V45.5143H148.751ZM149.251 51.9583H125.753V52.9583H149.251V51.9583ZM125.253 52.4583V63.6803H126.253V52.4583H125.253ZM125.753 64.1803H146.833V63.1803H125.753V64.1803ZM146.333 63.6803V70.5623H147.333V63.6803H146.333ZM146.833 70.0623H125.753V71.0623H146.833V70.0623ZM125.253 70.5623V81.9703H126.253V70.5623H125.253ZM125.753 82.4703H149.995V81.4703H125.753V82.4703ZM149.495 81.9703V88.9143H150.495V81.9703H149.495ZM149.995 88.4143H117.445V89.4143H149.995V88.4143ZM117.945 88.9143V45.5143H116.945V88.9143H117.945ZM164.635 45.5143V45.0143C164.359 45.0143 164.135 45.2382 164.135 45.5143H164.635ZM172.509 45.5143L172.911 45.2179C172.817 45.0899 172.668 45.0143 172.509 45.0143V45.5143ZM197.061 78.8703L197.223 79.3433C197.374 79.2917 197.491 79.1714 197.538 79.0195C197.585 78.8676 197.558 78.7021 197.463 78.5739L197.061 78.8703ZM194.891 79.6143H194.391C194.391 79.7758 194.469 79.9273 194.6 80.0212C194.732 80.115 194.9 80.1396 195.053 80.0873L194.891 79.6143ZM194.891 45.5143V45.0143C194.615 45.0143 194.391 45.2382 194.391 45.5143H194.891ZM202.951 45.5143H203.451C203.451 45.2382 203.227 45.0143 202.951 45.0143V45.5143ZM202.951 88.9143V89.4143C203.227 89.4143 203.451 89.1904 203.451 88.9143H202.951ZM195.015 88.9143L194.612 89.2101C194.706 89.3385 194.856 89.4143 195.015 89.4143V88.9143ZM170.587 55.6203L170.425 55.1473C170.274 55.1989 170.157 55.319 170.11 55.4708C170.062 55.6225 170.09 55.7879 170.184 55.9161L170.587 55.6203ZM172.757 54.8763H173.257C173.257 54.7148 173.179 54.5633 173.047 54.4694C172.916 54.3756 172.747 54.351 172.595 54.4033L172.757 54.8763ZM172.757 88.9143V89.4143C173.033 89.4143 173.257 89.1904 173.257 88.9143H172.757ZM164.635 88.9143H164.135C164.135 89.1904 164.359 89.4143 164.635 89.4143V88.9143ZM164.635 46.0143H172.509V45.0143H164.635V46.0143ZM172.106 45.8107L196.658 79.1667L197.463 78.5739L172.911 45.2179L172.106 45.8107ZM196.899 78.3973L194.729 79.1413L195.053 80.0873L197.223 79.3433L196.899 78.3973ZM195.391 79.6143V45.5143H194.391V79.6143H195.391ZM194.891 46.0143H202.951V45.0143H194.891V46.0143ZM202.451 45.5143V88.9143H203.451V45.5143H202.451ZM202.951 88.4143H195.015V89.4143H202.951V88.4143ZM195.418 88.6185L170.99 55.3245L170.184 55.9161L194.612 89.2101L195.418 88.6185ZM170.749 56.0933L172.919 55.3493L172.595 54.4033L170.425 55.1473L170.749 56.0933ZM172.257 54.8763V88.9143H173.257V54.8763H172.257ZM172.757 88.4143H164.635V89.4143H172.757V88.4143ZM165.135 88.9143V45.5143H164.135V88.9143H165.135ZM214.981 45.5143V45.0143C214.705 45.0143 214.481 45.2382 214.481 45.5143H214.981ZM250.383 45.5143H250.883C250.883 45.2382 250.659 45.0143 250.383 45.0143V45.5143ZM250.383 52.5203V53.0203C250.659 53.0203 250.883 52.7964 250.883 52.5203H250.383ZM236.867 52.5203V52.0203C236.591 52.0203 236.367 52.2442 236.367 52.5203H236.867ZM236.867 88.9143V89.4143C237.143 89.4143 237.367 89.1904 237.367 88.9143H236.867ZM228.497 88.9143H227.997C227.997 89.1904 228.221 89.4143 228.497 89.4143V88.9143ZM228.497 52.5203H228.997C228.997 52.2442 228.773 52.0203 228.497 52.0203V52.5203ZM214.981 52.5203H214.481C214.481 52.7964 214.705 53.0203 214.981 53.0203V52.5203ZM214.981 46.0143H250.383V45.0143H214.981V46.0143ZM249.883 45.5143V52.5203H250.883V45.5143H249.883ZM250.383 52.0203H236.867V53.0203H250.383V52.0203ZM236.367 52.5203V88.9143H237.367V52.5203H236.367ZM236.867 88.4143H228.497V89.4143H236.867V88.4143ZM228.997 88.9143V52.5203H227.997V88.9143H228.997ZM228.497 52.0203H214.981V53.0203H228.497V52.0203ZM215.481 52.5203V45.5143H214.481V52.5203H215.481ZM271.748 45.5143V45.0143C271.55 45.0143 271.371 45.1315 271.291 45.3129L271.748 45.5143ZM280.242 45.5143L280.701 45.3157C280.622 45.1327 280.442 45.0143 280.242 45.0143V45.5143ZM299.028 88.9143V89.4143C299.197 89.4143 299.354 89.3295 299.446 89.1888C299.539 89.048 299.554 88.8702 299.487 88.7157L299.028 88.9143ZM290.162 88.9143L289.7 89.1049C289.777 89.2921 289.96 89.4143 290.162 89.4143V88.9143ZM275.716 53.8843L276.179 53.6937C276.101 53.5063 275.919 53.3842 275.716 53.3843C275.513 53.3845 275.331 53.5069 275.254 53.6944L275.716 53.8843ZM261.332 88.9143V89.4143C261.535 89.4143 261.718 89.2918 261.795 89.1042L261.332 88.9143ZM252.652 88.9143L252.195 88.7129C252.127 88.8676 252.141 89.0461 252.234 89.1875C252.326 89.329 252.484 89.4143 252.652 89.4143V88.9143ZM262.634 72.6703V72.1703C262.358 72.1703 262.134 72.3942 262.134 72.6703H262.634ZM288.488 72.6703H288.988C288.988 72.3942 288.765 72.1703 288.488 72.1703V72.6703ZM288.488 79.4283V79.9283C288.765 79.9283 288.988 79.7044 288.988 79.4283H288.488ZM262.634 79.4283H262.134C262.134 79.7044 262.358 79.9283 262.634 79.9283V79.4283ZM271.748 46.0143H280.242V45.0143H271.748V46.0143ZM279.784 45.7129L298.57 89.1129L299.487 88.7157L280.701 45.3157L279.784 45.7129ZM299.028 88.4143H290.162V89.4143H299.028V88.4143ZM290.625 88.7237L276.179 53.6937L275.254 54.0749L289.7 89.1049L290.625 88.7237ZM275.254 53.6944L260.87 88.7244L261.795 89.1042L276.179 54.0742L275.254 53.6944ZM261.332 88.4143H252.652V89.4143H261.332V88.4143ZM253.11 89.1157L272.206 45.7157L271.291 45.3129L252.195 88.7129L253.11 89.1157ZM262.634 73.1703H288.488V72.1703H262.634V73.1703ZM287.988 72.6703V79.4283H288.988V72.6703H287.988ZM288.488 78.9283H262.634V79.9283H288.488V78.9283ZM263.134 79.4283V72.6703H262.134V79.4283H263.134ZM310.565 45.5143V45.0143C310.289 45.0143 310.065 45.2382 310.065 45.5143H310.565ZM318.873 45.5143H319.373C319.373 45.2382 319.149 45.0143 318.873 45.0143V45.5143ZM318.873 81.8463H318.373C318.373 82.1224 318.597 82.3463 318.873 82.3463V81.8463ZM337.597 81.8463H338.097C338.097 81.5702 337.873 81.3463 337.597 81.3463V81.8463ZM337.597 88.9143V89.4143C337.873 89.4143 338.097 89.1904 338.097 88.9143H337.597ZM310.565 88.9143H310.065C310.065 89.1904 310.289 89.4143 310.565 89.4143V88.9143ZM310.565 46.0143H318.873V45.0143H310.565V46.0143ZM318.373 45.5143V81.8463H319.373V45.5143H318.373ZM318.873 82.3463H337.597V81.3463H318.873V82.3463ZM337.097 81.8463V88.9143H338.097V81.8463H337.097ZM337.597 88.4143H310.565V89.4143H337.597V88.4143ZM311.065 88.9143V45.5143H310.065V88.9143H311.065Z" fill="black"/>
<path d="M28.325 32.9104L29.9461 18.1563L31.5672 32.9104C31.649 33.6552 32.237 34.2432 32.9818 34.325L47.7359 35.9461L32.9818 37.5672C32.237 37.649 31.649 38.237 31.5672 38.9818L29.9461 53.7359L28.325 38.9818C28.2432 38.237 27.6552 37.649 26.9104 37.5672L12.1563 35.9461L26.9104 34.325C27.6552 34.2432 28.2432 33.6552 28.325 32.9104Z" stroke="black" stroke-width="2"/>
</svg>
